<svg xmlns="http://www.w3.org/2000/svg" width="1032.3" height="770.6" x="0" y="0" version="1.1" viewBox="0 0 1032.3 770.6" xml:space="preserve"><path fill="#A8005D" d="M288.3 372.9zM356.4 265.2c-.6 5.4.9 7.5 1.6 11.7.9 5.1.5 11.2 4.2 13.4-.4-1.9-2.3-4.1-.8-6.1 1.4 1.1 2 2.9 4.4 3.1 6.3 7.9 14.4 14.2 23.7 18.1-.1.6-1.5-.2-1.1 1 6.6.5 13.1-.2 19.4-2.1l1.4-1.5c-.1-.6.5-1.3.7-1.7 1.3-3.1 1-6.6-.9-9.3l.1-.9c-6.1-1.2-12-3-17.8-5.2-.5-.5-.7-1.4-1.2-1.9-2.6-1-4.8-2.8-6.1-5.3-5-8.4 1.1-25.3 10.8-24.2 6.5.8 12.2 6.7 16.3 11 .8.8 1.2 2 2 2.7 2.1 1.8 3.9.9 6.6 1.6 1.4.4 2.9 2.2 4.4 2s2.3-1.6 3-3c4.7.5.5-5.1 2.6-6.3-2.7-1.3-1.2-4-1.4-6.1-.4-7.2-6.9-13-12.6-16.4-12-7.1-28.4-11.3-41.5-3.2-9.9 6.3-16.5 16.8-17.8 28.6zM288.3 372.9c-.5 0-2.5-.3-1.9.1.8.1 2 .5 1.9-.1zM293.9 375.5c-2.7-.5-5.5-.8-8.3-.9 2.7.8 5.5 1.1 8.3.9zM386.6 178.9c-.3.9-1 6.2.5 4.2-1 1.4.1 2.4.6 3.7.5-.4 1-.6 1.6-.6 1.9 1.2 5.2 1.8 5.1 3.3 1.2.6 1.1-.4 2.2 0 .2 1 2.4 1.2 1.5 2.7 1.4-.7 3-.6 4.3.2.9-1.7 1.9.3 3.9.4.1-.3.1-.7.5-.6 7-.6 6-6.4 6.4-11.5.1-1.4 1.2-2.7 1.3-4 .1-2-2-4.4-.3-6.5.5.1.9 1.3 1 .2-.5-2.7-4-4.3-2.9-7.6-2.9-1-4-2-6.8-2.1.2 1.5-1.7.8-2.5 1.2.1-.3.3-.5.5-.6-2.4-.7-3.7-.1-4.6.9-.9-1.2-2.3.9-4 .1-2.2 3.9-6.8 11.3-8.3 16.6zM305.2 263.2zM305.2 263.2c-2.7-.5-5.5-.8-8.3-1 2.7.9 5.5 1.2 8.3 1zM415.6 142.6c-1.1-4.6-7.4-7.5-12.2-9.9-1 1.2-1.6.1-2 1.5-.8.2-1.7-1-2.5-.5-1.7 1.9-.7 4.7-3.2 5.8 1.4 2.6 3.4 5.1 2.4 7.8.8 1 1.5-.3 2.3.7.3.7.1 1.8-.7 1.8 1.8 1.6 3.8 4.4 6.1 2.4 2.4 1.1 3.6 3.6 5.3 3.7-1-.9-1.7-1.8-.3-2.8.1.2.4 1.6 1 1-.2-.4-.1-1 .2-1.3 1.3.8 2.5.1 3.8-.3.7-2.9 2.1-5.7.9-8.6.3-.3.6-.5 1-.5-.8-.8-1.4.3-2.1-.8zM299.6 260.7c-.5 0-2.5-.3-1.9.1.8 0 2 .5 1.9-.1zM299.6 260.7zM685.2 302.8c-.3.4-.6.9-.9 1.3l-.4 1c-2.5 2.6-5.4 5.7-5.1 9.7.1.6.1 1.2 0 1.8l-1 2.3v.4c-.4 8.3-.2 16.7.7 25-11.5 1.5-21.9 5.6-33.7 6.4l3.3 1.2c-.8 2.9 4.9 6.1 4.9 8.6 6.7 2.2 6.9 8.8 10.5 12.1 2.3 2.2 5.9 1 8.4 1.1 2.4.4 4.9.5 7.3.4 2.2-.4 4.5-.7 6.9-1.2 9-1.6 16.8-6 24.2-10 2.4-2.7 5.3-5 8.5-6.8.1 0 .2-.1.3-.1-.1.2-.1.4-.2.6 8.8-6.8 18.8-12.1 25.1-21.7 1-2.8-1.1-4.2-3.4-5.5.4-.7.6-1.6.4-2.4v-.5c-2.9-.1-3.7-2.8-6.4-4.8-1.7.2-3.4.2-5.2.1-.7.3-1 1.5-1.7 1.8-7.8 1.9-14 7.3-20.9 11.2-2.2-5.1-1.5-11.4-2.7-17.4-.9-4.6-3.1-9.1-.8-14.3.8 1 .7 2.3 1.1 3.5.7.4.1-2.6-.1-3.4-2.2-.8-2.3-3.4-4.1-3.6-1-.2-1.6.5-2.4.8-1-.7-.4-2.1-1.3-2.9-4.3-.2-8.6 1.7-11.3 5.3zM821.8 324.7zM827.4 327.2c-2.7-.5-5.5-.8-8.3-.9 2.7.8 5.5 1.1 8.3.9zM827.5 327.2zM757.8 507.8c2-3.5 3.2-7.4 3.6-11.5 5.4-13.8 12.3-27.8 9.8-39.3-.7-.4-.6-1.1-1.7-1.4-.2-.5.2-1.3-.5-1.6-2.2-1.6-5.2-1.8-7.6-.6-1.6-1.7-3-5-5-5.4-.6-4-6.8-5.5-9.5-8.5-7.1-3.1-15.3-2.9-22.2.5-2.3.9-4.5 2.1-6.6 3.5.3-.1.6 0 .5.3-1.1.6-3 1.4-3.4 2.5 1-.5 2.5-2 3.2-1.6-2.4 1.9-4.6 4-6.6 6.3-2.5 3.4-6 8.2-6.7 12.3 0 .7.1 1.5.2 2.2 0 2.4-.9 5.1-.8 7 .5 2.7 1.4 5.2 2.9 7.5-.4.8.4 1.2.1 1.9 3.9 2.2 3.2 8 8.1 9.3.5.5 2 1.7 1.4 2-.8-.3-.6-1.5-1.5-1.3s.4.7-.3.6c-1.2-.2-1.3-1.7-2.2-1.4.5.8 1.2 1.4 2 1.8-.3.6-.6.3-.4.9 1 1.2 3.5 1.9 2.7 3.7 2.8 1.9 5.7 5.1 9.1 5.6-2.4-1.1-4.4-2.8-5.7-5 2.6.7 5.2 3 8.3 4.1.7-.8 3 0 3.7 1-1.1.2-2-.6-2.9-1.2.7 2.1 3.1 2.2 4.9 1.9-.5.8-.6.6-.4 1.4 2.2 1.1 3.5-.5 5.5.1-.1 1.3.1 2.6.7 3.8 2.8-.4 1.9 2.5 4.7 2.9.7-.7-.1-.9.2-1.5.7.6.7-.9 1.3-.4.4.5.2 1.2 1.1 1.6.4-1 .5-.2.7.1 1.2-1.6 2.9-1.8 4-3.8.6.2-.2.9.2 1.2.2-.5 1.5-1.6 1.8-.4.9-.9 1.8-1.8 2.9-2.5.5.4-.5 1.2.4 1.4zM747 440.9l1.5.7-.2.4-1.5-.7c0-.1.1-.3.2-.4zm-26.6 4.5c5.6-3.1 11.3-5.9 18.1-5.5.5.3.2.3 0 .5-1.8-.1-3.6.1-5.2.8-1.2-.9-1.6.5-2.7 0-3.2 1.8-6.7 3.2-10.2 4.2zm22 43c-1 .6-2.2.5-3.3.7-5.9-4.4-13-8.2-15.3-14.5-1.4-3.9-1.9-11.2 2.2-15 3.7-3.5 12.2-8 17.9-3.5 2.6 2.2 4.9 4.9 6.7 7.8-4.9 8.7-6.1 16.2-8.2 24.5zM794.8 368.1c0-.4-.8-.5-.7-.9.6-.5 1.6.1 2.1-.9-.8-.4-.7-1-.9-1.6 1.3-.1 1.2-1.2 2.2-2-1.1-.6-2.3-.5-2.2-1.7.3-.7 1.2.4 1.6-.3-1-.9-1-2-1.2-3.1.6-.1 1.5.8 2 .5-1.1-.9-1.7-2.3-1.8-3.7 0 .3.8 0 .8-.4s-.5-1-.3-1.6c.5-1 .7-2.1.5-3.1-1-3.5-4.9-5.9-9.9-6.5 1.9.6 5.9 1.6 5.9 3.9-11.2-8.9-21.1-3.7-30.5-1.9 1.4-2.3-.3-3.6-2-5 .6-.7-.3-.5-.3-1.1-2.1-1.1-3.3-2.2-5.2-1-7.7 4.7-11.4 12.8-13.9 21l.2-.1c-1.8 4.5-5.7 8.4-7.8 13.5-3 7.1-2.2 14.7-1.8 20.4 1.5.2 1.6 1.7 2.4 2.4.3.2.9-.2 1.3.1 1.3 1 .9 2.9 2.7 3 .8 0 .3-1.1.8-1.6 3.8-2.3 6.9-5.8 8.7-9.9 5.7-12.8 17.3-18 27.5-22.4 6.5-.4 13.7 5.4 19.8 4zM821.8 324.7c-.5 0-2.5-.3-1.9.1.8 0 2 .5 1.9-.1zM293.9 375.5zM701.8 426.5c-1.1-4.6-7.4-7.5-12.2-9.9-1 1.2-1.6.1-2 1.5-.8.2-1.7-1-2.5-.5-1.7 1.9-.7 4.7-3.2 5.8 1.4 2.6 3.4 5.1 2.4 7.8.8 1 1.5-.3 2.3.7.3.7 0 1.8-.7 1.8 1.8 1.6 3.8 4.4 6.1 2.4 2.4 1.1 3.6 3.6 5.3 3.7-1-.9-1.7-1.8-.3-2.8.1.2.4 1.6 1 1-.2-.4-.1-1 .2-1.3 1.3.8 2.5.1 3.8-.3.7-2.9 2.1-5.7.9-8.5.3-.3.6-.5 1-.5-.7-.8-1.4.3-2.1-.9zM817.4 252.1c-2.1-7.4-11.5-20.1-21.9-17.4-2.7-.6-4.1.6-6.6 1-5.1.9-10.7.4-15.1 2.2-13.7 5.4-24.2 24.5-22.8 40.8.8.6 1.4 1.4 1.7 2.3.7.2 3.9.3 2.6 1.3 8.7-.7 12.1-12.1 19.1-19.6 3.8-4 13.6-11.8 19-9.2 2.2 1.1 6 7.3 6.8 8.8 6.2 12.6-10.5 26.5-16.9 37.6-.2 1.3.9.8 1.3 1.7-1.2 1.6.8 2.1-1.3 4 2.5-.9 4.1-.4 6-2.7 1 .3.3 1.4 1.3 1 1.4-1.2 2.7-3 4.8-2.3.9-2 3.3-3.4 2.9-1.5 1.6-1.2 3.7-1.8 5.8-1.4 4.7-3.5 8.6-7.9 11.5-13 3.2-6 5.5-12.6 6.7-19.3.2-3.4-1.6-12-4.9-14.3zM421 196.2c-.4.8.4 1.2.1 1.9 3.9 2.2 3.2 8 8.1 9.3.5.6 2 1.7 1.4 2-.9-.3-.6-1.5-1.5-1.3-.9.1.4.7-.3.6-1.2-.2-1.3-1.7-2.2-1.4.5.8 1.2 1.4 2 1.8-.3.6-.6.3-.4.9 1 1.2 3.5 1.9 2.6 3.7 2.8 1.9 5.7 5.1 9.1 5.6-2.4-1.1-4.4-2.8-5.7-5 2.6.7 5.2 2.9 8.3 4.1.7-.8 3 .1 3.7 1.1-1.1.2-2-.6-2.9-1.2.7 2.1 3.1 2.2 4.9 1.9-.5.8-.6.6-.4 1.4 2.2 1.1 3.5-.5 5.5.1-.1 1.3.1 2.6.8 3.8 2.8-.4 1.9 2.5 4.7 2.9.7-.7-.1-.9.2-1.5.7.6.6-.9 1.3-.4.4.5.2 1.2 1.1 1.6.4-1.1.5-.2.7.1 1.2-1.6 2.9-1.8 4-3.8.6.2-.2.9.2 1.2.2-.6 1.5-1.6 1.8-.4.9-.9 1.8-1.8 2.9-2.5.8.2-.2 1 .7 1.2 2-3.5 3.2-7.4 3.6-11.4 5.4-13.8 12.3-27.8 9.8-39.3-.7-.4-.6-1.1-1.7-1.4-.2-.5.2-1.3-.5-1.6-2.2-1.6-5.2-1.8-7.6-.6-1.6-1.7-3-5-5-5.4-.6-4-6.8-5.5-9.5-8.5-7.1-3.1-15.3-2.9-22.2.6-2.3.9-4.6 2.1-6.6 3.5.3-.1.6 0 .5.3-1.1.6-3 1.4-3.4 2.6 1-.5 2.5-2 3.2-1.6-2.4 1.9-4.6 4-6.6 6.3-2.5 3.4-6 8.2-6.7 12.3 0 .7.1 1.5.2 2.2 0 2.4-.9 5.1-.8 7 .2 2.4 1.2 5 2.6 7.3zm39.7-39.3l1.5.7-.2.4-1.5-.7c.1-.1.2-.2.2-.4zm3.6 23c-4.9 8.7-6.1 16.2-8.2 24.5-1 .6-2.2.5-3.3.7-5.9-4.4-13-8.2-15.3-14.5-1.4-3.9-1.9-11.2 2.2-15 3.7-3.4 12.2-8 17.9-3.5 2.7 2.2 4.9 4.9 6.7 7.8zm-12.1-24c.5.3.2.3 0 .5-1.8-.1-3.6.1-5.2.8-1.2-.9-1.6.5-2.6 0-3.3 1.8-6.7 3.1-10.3 4.1 5.7-3 11.4-5.8 18.1-5.4zM786.1 65.9zM694.6 235.4c-.4.8.4 1.2.1 1.9 3.9 2.2 3.2 8 8.1 9.3.5.6 2 1.7 1.4 2-.8-.3-.6-1.5-1.5-1.3s.4.7-.3.6c-1.2-.2-1.3-1.7-2.2-1.4.5.8 1.2 1.4 2 1.8-.3.6-.6.2-.4.9 1 1.2 3.5 1.9 2.7 3.7 2.8 1.9 5.7 5.1 9.1 5.6-2.4-1.1-4.3-2.8-5.7-5 2.6.7 5.2 3 8.3 4.1.7-.8 3 0 3.7 1-1.1.2-2-.6-2.9-1.2.7 2.1 3.1 2.2 4.9 1.9-.5.8-.6.6-.4 1.4 2.2 1.1 3.5-.5 5.5.1-.1 1.3.1 2.6.7 3.8 2.8-.4 1.9 2.5 4.7 2.9.7-.7-.1-.9.2-1.5.7.6.7-.9 1.3-.4.4.5.2 1.2 1.1 1.6.4-1 .5-.2.7.1 1.2-1.6 2.9-1.8 4-3.8.6.2-.2.9.2 1.2.2-.5 1.5-1.6 1.8-.4.9-.9 1.8-1.8 2.9-2.5.8.2-.2 1 .7 1.2 2-3.5 3.2-7.4 3.6-11.4 5.4-13.8 12.3-27.8 9.8-39.3-.7-.4-.6-1.1-1.7-1.4-.2-.5.2-1.2-.5-1.6-2.2-1.6-5.2-1.8-7.6-.6-1.6-1.7-3-5-5-5.4-.6-4-6.8-5.5-9.5-8.5-7.1-3.1-15.3-2.9-22.2.6-2.3.9-4.6 2.1-6.6 3.5.3-.1.6 0 .5.3-1.1.6-3 1.4-3.4 2.5 1-.5 2.5-2 3.2-1.6-2.4 1.9-4.6 4-6.6 6.3-2.5 3.4-6 8.2-6.7 12.3 0 .7.1 1.5.2 2.2 0 2.4-.9 5.1-.8 7 .1 2.6 1.1 5.1 2.6 7.5zm39.7-39.3l1.5.7-.2.4-1.5-.8c.1 0 .1-.2.2-.3zm3.6 23c-4.9 8.7-6.1 16.2-8.2 24.5-1 .6-2.2.5-3.3.7-5.9-4.4-13-8.2-15.3-14.5-1.4-3.9-1.9-11.2 2.2-15 3.7-3.5 12.2-8 17.9-3.5 2.7 2.2 4.9 4.9 6.7 7.8zm-12.1-24c.5.3.2.3 0 .5-1.8-.1-3.6.1-5.2.8-1.2-.9-1.6.5-2.7 0-3.3 1.8-6.7 3.1-10.3 4.1 5.7-3 11.4-5.8 18.2-5.4zM786 65.9c-2.7-.5-5.5-.8-8.3-.9 2.7.8 5.5 1.1 8.3.9zM645.5 166.8c-1.1-5.4-8.5-14.4-14.5-17.8-7.9-4.5-13.1-5.2-20.9-6.8-12.9-2.5-28.6 3.1-34.5 13.8-2.6 4.7-3.6 11.7-1 16.3.5.8 2.1 1 1.4 2.2 2.4-.6 4.5 2.7 7.7 3.1 3.6.5 6.4-2.1 7.6-6.1 3.6-1.4 4-4.7 6.8-6.1 4.5-2.3 14.1-1.8 21.1 2.9 4.8 3.5 9.1 7.7 12.6 12.5 2.1 3.2.8 7.1 1.1 10.4.4 2.6 1.1 5.2 2.1 7.6 2.5 7.4 5.3 16.5 14.8 19.8-2.1-.9-3.2-2-2.3-3.7 3.3 2.2 4.4 2.1 3.4-.1 1.3.4 3.2 2 4.2 1.7-.3-.7-1.7-.4-1.7-1.6.9-.2.8-1.1.4-1.6 1.2-.1 3.1 1.5 4.3 1.4.9-1.3-3.2-1.4-2.4-2.6.8.4 1.7.6 2.6.6-.7-.6-1.8-1.2-1.4-2.2 1.3.4 1.1 1.1 2.2 1.5.1-1.1-.8-1.8-.7-2.9.5-.2 1.3.5 1.4-.4-.8-4.1-2.7-7.9-1.2-12.7-1.9-10.7-6.4-20.7-13.1-29.2zM757.5 154.1c2 2.9 1.9 5.6 2.9 8.3 2.8 4.6 9.3 7.9 11.2 13.3 3.5.1 7.6 3.8 11.3 4.4 4.5.7 6.2-3.3 7.3-7.5-7-11.1-12.7-22-8.2-31.9 2.8-2 4.7-7.6 9-9.1 1.4-.2 2.8-.1 4.1.2 1.4.2 3.2 4.4 2.7 5.7-3.7.7-7.3 2-10.6 3.7 3.8.4 8.5-2.3 11.6-1.9-2.8 1.4-5.8 2.3-8.9 2.6-3 .4-6.4-.2-8.5 2.2 3.9 1.4 8.2 5.1 12.5 6.1 2.8.6 5.2-.6 7.7 1 2.8-.6 5.5-1.7 8-3.1 5.9-4.4 8-12.1 7.8-18.1-1.4-4.2-5.8-11.8-11.2-14.2 1.2 1.2 1.8 1.7 1 2.3-3.5-1.6-8.4-7-11-6.1.5 0 2 .7 1.8 1.5-3.5-.9-6.2-2.8-9.5-2.9-2.4-.1-4.7 1.2-7.5 2.1-6.1 1.8-9.6 2.7-14.8 6.8-11.4 8.7-10.1 23.7-8.7 34.6zM780.5 63.3z"/><path fill="#A8005D" d="M872.4 275.5c-.5-.9-1.2-1.5-1.6-2.4l-1.5-.3c-4.4-3.7-9.9-5.8-15.7-6.1-.6-.5-1.3-.9-2-1.1-12.8-1.3-19 9.6-19.5 20.6-.2 4.3-.7 7.5-2.7 9.9-3.2 3.9-7 7.4-11.2 10.4-4.1 2.9-10.1 3.6-13.7 6.3 1 .5 1.5-.4 1.8.4-.3.9-.1 2.2-.8 2.2.8.2.6-.3 1.5.1.5.5 1.1 1 1.7 1.3-.1.4-1.5-.3-1.5.2 1.7.1.5 1 1.2 1.4 2.6.9 5.1 2.1 7.5 3.6-.5 0-1.9-.6-1.8-.1 1.1.3 2.2.8 3.2 1.3.1.4-.8 0-.8.3 5.7 2.3 9.1 1 13 1.1-.8 1-3.3.5-4.6 1 .9 1.5 4.9 0 6.4 1-.7.1-1.6-.2-1.7.4 1.7.2 2.4-.4 3.8-.5.3.3 1.2 1.5 1.6.8-.3-.1-.5-.5-.1-.5 5.4-.4 8-3.2 11.2-5.4-.2 1.2-1.7 1.2-1.6 2.5 1.9.1 1.2-2.1 3.6-1.7-1.5 1.8-4.7 3.3-5.3 5.1 4.4-3.2 8.1-6.9 12.4-10.1-.8-.8.3-1.3-.3-1.7-1.3.1-.8 1.8-2.7 1.4 1-1.7.1-5.4 3-6.3.1.4 0 .9.5 1 .2-.3.1-.9.8-.8.1.4 0 .9.5 1 .9-3.2 3.2-5.1 3.8-8.5.5.7 0 .7.5 1 1.8-1.8-2.1-7.2-.1-8.8-2-3.5-2.7-7.5-2.1-11.4.8.1.5 1 1.1 1.1-.7-2.3-2.2-5.1-.2-5.9.3.5-.1 1.5.6 1.8-.4-4.5 6.8-3.1 10.3-3.7-.3-.5-1.8-.2-1.7-1 1.8.9 2.4-.5 3.2-.9zm-15.1 9.8c1.4 2 1 5.2 1.4 7.8-1.3-2.4-1.8-5.1-1.4-7.8zM815 401c3.9 1.4 8.1 5.1 12.5 6.1 2.8.6 5.2-.6 7.7 1 2.8-.6 5.5-1.7 8-3.1 5.9-4.4 8-12.1 7.8-18.1-1.4-4.2-5.8-11.8-11.3-14.2 1.2 1.2 1.8 1.7 1 2.3-3.5-1.6-8.4-7-11-6.1.5 0 2 .7 1.8 1.5-3.5-1-6.2-2.8-9.5-2.9-2.4-.1-4.7 1.2-7.5 2.1-6.1 1.8-9.6 2.7-14.8 6.8-11.4 8.9-10.1 23.9-8.7 34.8 2 2.9 1.9 5.6 2.9 8.3 2.8 4.6 9.3 7.9 11.2 13.3 3.5.1 7.6 3.8 11.3 4.4 4.5.7 6.2-3.3 7.3-7.5-7-11.1-12.7-22-8.2-31.9 2.8-2 4.7-7.6 9-9.1 1.4-.2 2.8-.1 4.1.2 1.4.2 3.2 4.5 2.7 5.7-3.7.7-7.3 2-10.6 3.7 3.8.4 8.5-2.2 11.6-1.9-2.8 1.4-5.9 2.3-9 2.6-2.7.2-6.2-.3-8.3 2zM780.5 63.3c-.5 0-2.5-.3-1.9.1.7.1 1.9.5 1.9-.1zM28.1 340.8c-2.7-.5-5.5-.8-8.3-1 2.7.8 5.5 1.2 8.3 1zM424.8 504.1c-1.1-4.6-7.4-7.5-12.2-9.9-1 1.2-1.6.1-2 1.5-.8.2-1.7-1-2.5-.5-1.7 1.9-.7 4.7-3.2 5.8 1.4 2.6 3.4 5.1 2.4 7.7.8 1 1.5-.3 2.3.7.3.7.1 1.8-.7 1.8 1.8 1.6 3.8 4.4 6.1 2.4 2.4 1.2 3.6 3.6 5.3 3.7-1-.9-1.7-1.8-.3-2.8.1.2.4 1.6 1 1-.2-.4-.1-1 .2-1.3 1.3.8 2.5.2 3.8-.3.7-2.9 2.1-5.7.9-8.5.3-.3.6-.5 1-.5-.8-.7-1.4.4-2.1-.8zM337.8 215.2c.3.5-.1 1.5.6 1.8-.4-4.5 6.8-3.1 10.3-3.7-.3-.5-1.8-.2-1.7-1 1.7 1 2.3-.4 3.1-.8-.5-.9-1.2-1.5-1.6-2.4l-1.5-.3c-4.4-3.6-9.9-5.8-15.7-6.1-.6-.5-1.3-.9-2-1.1-12.8-1.3-19 9.6-19.5 20.6-.2 4.3-.7 7.5-2.7 9.9-3.2 3.9-7 7.4-11.2 10.4-4.1 2.9-10.1 3.6-13.7 6.3 1 .5 1.4-.4 1.9.4-.3.9-.1 2.2-.8 2.2.8.2.6-.3 1.5.1.5.5 1.1.9 1.7 1.3-.1.4-1.5-.3-1.5.2 1.7.1.4 1 1.1 1.4 2.6.9 5.1 2.1 7.5 3.6-.5 0-1.9-.6-1.8-.1 1.1.3 2.2.8 3.2 1.3.1.4-.8 0-.8.3 5.7 2.3 9.1 1 13 1.1-.8 1-3.3.5-4.6 1 .9 1.5 4.9 0 6.4 1-.7.1-1.6-.2-1.7.4 1.7.2 2.4-.4 3.8-.5.3.3 1.2 1.5 1.6.8-.3-.1-.5-.5-.1-.5 5.4-.4 8-3.2 11.2-5.4-.2 1.2-1.7 1.2-1.6 2.5 1.9.1 1.2-2.1 3.6-1.7-1.5 1.8-4.7 3.2-5.3 5.1 4.4-3.2 8.1-6.9 12.4-10.1-.8-.8.3-1.3-.3-1.7-1.3.1-.8 1.8-2.7 1.4 1-1.7.1-5.4 3-6.3.1.4 0 .9.5 1 .2-.3.1-.9.8-.8.1.4 0 .9.5 1.1.9-3.2 3.2-5.1 3.8-8.5.5.7 0 .7.5 1 1.8-1.8-2.1-7.2-.1-8.8-2-3.5-2.7-7.5-2-11.5.8.1.5 1 1.1 1.1-.7-2.4-2.2-5.2-.2-6zm-2.7 6.1c1.4 2 1 5.2 1.4 7.8-1.3-2.4-1.8-5.1-1.4-7.8zM424.5 532c-.5-2.7-4-4.3-2.9-7.6-2.9-1-4-2-6.8-2.1.2 1.5-1.7.8-2.5 1.2.1-.3.3-.5.5-.7-2.4-.7-3.7-.1-4.6 1-.9-1.2-2.3.9-4 0-2.3 4-6.9 11.4-8.4 16.7-.2.9-1 6.2.5 4.2-1 1.4.1 2.3.6 3.7.5-.4 1-.6 1.6-.6 1.9 1.2 5.2 1.8 5.1 3.3 1.2.6 1.1-.4 2.2 0 .2 1 2.4 1.2 1.5 2.7 1.4-.7 3-.6 4.3.3.9-1.7 1.9.2 3.9.4.1-.3.1-.7.5-.6 7-.6 6-6.4 6.4-11.5.1-1.4 1.2-2.7 1.3-4 .1-2-2-4.4-.3-6.5.5-.1.9 1.1 1.1.1zM338.9 323.7c-.5-.9-1.2-1.5-1.6-2.4l-1.5-.3c-4.4-3.7-9.9-5.8-15.7-6.1-.6-.5-1.3-.9-2-1.1-12.8-1.3-19 9.6-19.5 20.6-.2 4.3-.7 7.5-2.7 9.9-3.2 3.9-7 7.4-11.2 10.4-4.1 2.9-10.1 3.6-13.7 6.3 1 .5 1.4-.4 1.9.4-.3.9-.1 2.2-.8 2.2.8.2.6-.3 1.5 0 .5.5 1.1 1 1.7 1.3-.1.4-1.5-.3-1.5.2 1.7.1.4 1 1.1 1.4 2.6.9 5.1 2.1 7.5 3.6-.5 0-1.9-.6-1.8-.1 1.1.3 2.2.8 3.2 1.3.1.4-.8 0-.8.3 5.7 2.3 9.1 1 13 1.1-.8 1-3.2.5-4.6 1 .9 1.5 4.9 0 6.4 1-.6.1-1.6-.2-1.7.4 1.7.2 2.4-.4 3.8-.5.3.2 1.2 1.5 1.6.8-.3-.1-.5-.5-.1-.5 5.4-.4 8-3.2 11.2-5.4-.2 1.2-1.7 1.2-1.6 2.5 1.9.1 1.2-2.1 3.6-1.7-1.5 1.8-4.7 3.3-5.3 5.1 4.4-3.2 8.1-6.9 12.4-10.1-.8-.8.3-1.3-.3-1.7-1.3.1-.8 1.8-2.7 1.4 1-1.7.1-5.4 3-6.3.1.4.1.9.5 1 .2-.3.1-.9.7-.8.1.4 0 .9.5 1 .9-3.2 3.2-5.1 3.8-8.5.5.7 0 .7.5 1 1.8-1.8-2.1-7.2-.1-8.8-2-3.5-2.8-7.5-2.1-11.5.8.1.5 1 1.1 1.1-.7-2.3-2.2-5.1-.2-5.9.3.5-.1 1.5.6 1.8-.4-4.5 6.8-3.1 10.3-3.7-.3-.5-1.8-.2-1.7-1 1.9 1.2 2.5-.3 3.3-.7zm-15.1 9.8c1.4 2 1 5.2 1.4 7.8-1.3-2.3-1.8-5.1-1.4-7.8zM458.7 443.8c.1 0 .2-.1.3-.1-.1.2-.1.4-.2.6 8.9-6.8 18.8-12.1 25.1-21.7 1-2.8-1.1-4.2-3.4-5.5.4-.7.6-1.6.4-2.4v-.5c-2.9-.1-3.7-2.8-6.4-4.8-1.7.2-3.4.2-5.1.1-.7.3-1 1.5-1.7 1.8-7.8 1.9-14 7.3-20.9 11.2-2.2-5.1-1.5-11.4-2.7-17.4-.9-4.6-3.1-9.1-.8-14.2.8 1 .7 2.3 1.1 3.5.7.4.1-2.6-.1-3.4-2.2-.8-2.3-3.4-4.1-3.6-1-.2-1.6.5-2.4.8-1-.7-.4-2.1-1.3-2.9-4.4-.4-8.7 1.5-11.3 5-.3.4-.6.9-.9 1.3l-.4 1c-2.5 2.6-5.4 5.7-5.1 9.7.1.6.1 1.2 0 1.8l-1 2.3v.4c-.4 8.3-.2 16.7.7 25-11.5 1.5-21.9 5.6-33.7 6.4l3.3 1.2c-.8 2.9 4.9 6.1 4.9 8.7 6.7 2.2 6.9 8.8 10.5 12.1 2.3 2.2 5.9 1 8.4 1.1 2.4.4 4.9.5 7.3.4 2.2-.4 4.5-.7 6.9-1.2 9-1.6 16.8-6 24.2-10 2.4-2.6 5.2-4.9 8.4-6.7zM377.2 418.7c6.6.5 13.1-.2 19.4-2.1l1.4-1.5c-.1-.6.5-1.3.7-1.7 1.3-3.1 1-6.6-.9-9.3l.1-.9c-6.1-1.2-12-2.9-17.8-5.2-.5-.5-.7-1.4-1.2-1.9-2.6-.9-4.8-2.8-6.1-5.3-5-8.4 1.1-25.3 10.8-24.2 6.5.7 12.2 6.7 16.3 11 .8.8 1.2 2 2 2.7 2.1 1.8 3.9.9 6.6 1.6 1.4.4 2.9 2.2 4.4 2s2.3-1.6 3-3.1c4.7.5.5-5 2.6-6.2-2.6-1.3-1.2-4-1.4-6.1-.4-7.2-6.9-13-12.6-16.4-12-7.1-28.4-11.3-41.5-3.2-10 6.4-16.5 16.9-17.8 28.7-.6 5.4.9 7.5 1.7 11.7.9 5.1.5 11.2 4.2 13.4-.4-1.9-2.3-4.1-.8-6.1 1.4 1.1 2 2.9 4.4 3.1 6.3 7.9 14.4 14.2 23.7 18.1-.3.4-1.7-.3-1.2.9zM218.1 387.8c1-2.8-1.1-4.2-3.4-5.5.4-.7.6-1.6.4-2.4v-.5c-2.9-.1-3.7-2.8-6.4-4.8-1.7.2-3.4.2-5.1.1-.7.3-1 1.5-1.7 1.8-7.8 1.9-14 7.3-20.9 11.2-2.2-5.1-1.5-11.4-2.7-17.4-.9-4.6-3.1-9.1-.8-14.3.8 1 .7 2.3 1.1 3.5.7.4.1-2.6-.1-3.4-2.2-.8-2.3-3.4-4.1-3.6-1-.2-1.6.5-2.4.8-1-.7-.4-2.1-1.3-2.9-4.9-.4-9.7 2.1-12.2 6.3l-.4 1c-2.6 2.6-5.4 5.7-5.1 9.7.1.6.1 1.2 0 1.8l-1 2.3v.4c-.4 8.3-.2 16.7.7 25-11.5 1.5-21.9 5.6-33.7 6.4l3.3 1.2c-.8 2.9 4.9 6.1 4.9 8.6 6.7 2.2 6.9 8.8 10.5 12.1 2.3 2.2 5.9 1 8.4 1.1 2.4.4 4.9.5 7.4.4 2.2-.4 4.5-.7 6.9-1.2 9.1-1.6 16.8-6 24.2-10 2.4-2.7 5.3-5 8.5-6.8l.3-.1c-.1.2-.1.4-.2.6 8.6-6.4 18.6-11.8 24.9-21.4zM196.7 519.2c-.5-2.7-4-4.3-2.9-7.6-2.9-1-4-2-6.8-2.1.2 1.5-1.7.8-2.5 1.2.1-.3.3-.5.5-.6-2.4-.7-3.7-.1-4.6.9-.9-1.2-2.3.9-4 .1-2.3 4-6.9 11.4-8.4 16.7-.2.9-1 6.2.5 4.2-.9 1.4.1 2.3.6 3.7.5-.4 1-.6 1.6-.6 1.9 1.2 5.2 1.8 5.1 3.3 1.2.6 1.1-.4 2.2 0 .2 1 2.4 1.3 1.6 2.7 1.4-.7 3-.6 4.3.3.9-1.7 1.9.3 3.9.4.1-.3.1-.7.5-.6 7-.6 6-6.4 6.4-11.5.1-1.4 1.2-2.7 1.3-4 .1-2-2-4.4-.3-6.5.5-.1.8 1 1 0zM311.8 608.3c4.7-3.5 8.6-7.9 11.5-13 3.2-6 5.5-12.5 6.7-19.3.3-3.4-1.5-12-4.8-14.2-2.1-7.4-11.5-20.1-21.9-17.4-2.7-.6-4.1.6-6.6 1-5.1.8-10.7.4-15.1 2.2-13.7 5.5-24.2 24.5-22.8 40.8.8.6 1.4 1.4 1.7 2.3.7.2 3.9.3 2.6 1.3 8.7-.7 12.1-12.1 19.1-19.6 3.8-4 13.6-11.8 19-9.2 2.2 1.1 6 7.3 6.8 8.8 6.2 12.6-10.5 26.5-16.9 37.6-.2 1.3.9.8 1.3 1.7-1.2 1.6.8 2.1-1.3 4 2.5-.9 4-.4 6-2.7 1 .3.3 1.4 1.3 1 1.4-1.2 2.7-3 4.8-2.3 1-2 3.3-3.3 2.9-1.4 1.5-1.4 3.6-2 5.7-1.6zM197 491.3c-1.1-4.6-7.4-7.5-12.2-9.9-1 1.2-1.6.1-2 1.5-.8.2-1.7-1-2.5-.5-1.7 1.9-.7 4.7-3.2 5.8 1.4 2.6 3.4 5.1 2.4 7.8.8 1 1.5-.3 2.3.7.3.7.1 1.8-.7 1.8 1.8 1.6 3.8 4.4 6.1 2.4 2.4 1.1 3.6 3.6 5.3 3.7-1-.9-1.7-1.8-.3-2.8.1.2.4 1.6 1 1-.2-.4-.1-1 .2-1.3 1.3.8 2.5.1 3.8-.3.7-2.9 2.1-5.7.9-8.5.3-.3.6-.5 1-.5-.7-.8-1.4.3-2.1-.9zM253 572.6c2-3.5 3.2-7.4 3.6-11.5 5.4-13.8 12.3-27.8 9.8-39.3-.7-.4-.6-1.1-1.7-1.4-.2-.5.2-1.3-.5-1.6-2.2-1.6-5.2-1.8-7.6-.6-1.6-1.7-3-5-5-5.4-.6-4-6.8-5.5-9.5-8.5-7.1-3.1-15.3-2.9-22.2.5-2.3.9-4.6 2.1-6.6 3.5.3-.1.6 0 .5.3-1.1.6-3.1 1.4-3.4 2.5 1-.5 2.5-2 3.2-1.6-2.4 1.9-4.6 4-6.6 6.2-2.5 3.4-6 8.2-6.6 12.3 0 .7.1 1.5.2 2.2 0 2.4-.9 5.1-.8 7 .5 2.7 1.5 5.2 2.9 7.5-.4.8.4 1.2.1 1.9 3.9 2.2 3.2 8 8.1 9.3.4.5 2 1.7 1.4 2-.9-.3-.6-1.5-1.5-1.3-.9.1.4.7-.3.6-1.2-.2-1.3-1.7-2.2-1.4.5.8 1.2 1.4 2 1.8-.3.6-.6.3-.4.8 1 1.2 3.5 1.9 2.7 3.7 2.8 1.8 5.7 5.1 9.1 5.6-2.4-1.1-4.3-2.8-5.7-5 2.6.7 5.2 3 8.3 4.1.7-.8 3 .1 3.7 1.1-1.1.2-2-.7-2.9-1.2.7 2.1 3.1 2.2 4.9 1.9-.5.8-.6.6-.4 1.4 2.2 1.2 3.5-.5 5.5.1-.1 1.3.1 2.6.7 3.8 2.8-.4 1.9 2.5 4.7 2.9.7-.7-.1-.9.2-1.5.7.6.6-.9 1.3-.4.4.5.2 1.2 1.1 1.6.4-1 .4-.2.7.1 1.2-1.6 2.9-1.8 4-3.8.6.2-.2.9.2 1.2.2-.5 1.5-1.6 1.8-.4.9-.9 1.8-1.8 2.9-2.5.4.5-.6 1.3.3 1.5zm-10.9-66.9l1.5.7c-.1.1-.1.3-.2.4l-1.5-.7c.1-.1.2-.2.2-.4zm-26.6 4.5c5.6-3.1 11.4-5.9 18.1-5.5.5.3.2.3 0 .5-1.8-.2-3.6.1-5.2.8-1.2-.9-1.6.5-2.6 0-3.2 1.8-6.7 3.2-10.3 4.2zm22 43c-1 .5-2.2.7-3.3.7-5.9-4.4-13-8.2-15.3-14.5-1.4-3.9-1.9-11.2 2.2-15 3.7-3.5 12.2-8 17.9-3.5 2.6 2.2 4.9 4.9 6.7 7.8-4.8 8.7-6.1 16.2-8.2 24.5zM317.5 457.8c5.9-4.4 8-12.1 7.8-18.1-1.4-4.2-5.8-11.8-11.3-14.2 1.2 1.2 1.8 1.7 1 2.3-3.5-1.6-8.4-7-11-6.1.5 0 2 .7 1.8 1.5-3.5-1-6.2-2.8-9.5-2.9-2.4-.1-4.7 1.2-7.5 2.1-6.1 1.8-9.6 2.7-14.8 6.8-11.4 8.9-10.1 23.9-8.7 34.8 2 2.9 1.9 5.6 2.9 8.3 2.8 4.6 9.3 7.9 11.2 13.3 3.5.1 7.6 3.8 11.3 4.4 4.5.7 6.2-3.3 7.3-7.5-7-11.1-12.7-22-8.2-31.9 2.8-2 4.7-7.6 9-9.1 1.4-.2 2.8-.1 4.1.2 1.4.2 3.2 4.5 2.7 5.7-3.7.7-7.3 2-10.6 3.7 3.8.4 8.5-2.2 11.6-1.9-2.8 1.4-5.8 2.3-9 2.6-3 .4-6.4-.2-8.5 2.2 3.9 1.4 8.1 5.1 12.5 6.1 2.8.6 5.2-.6 7.6 1 3-.9 5.8-1.9 8.3-3.3zM845 447.2c3.6.5 6.4-2.1 7.6-6.1 3.6-1.4 4-4.7 6.8-6.1 4.5-2.3 14.1-1.8 21.2 2.9 4.8 3.5 9.1 7.7 12.6 12.5 2.1 3.2.8 7.1 1.1 10.4.4 2.6 1.1 5.2 2.1 7.6 2.5 7.4 5.3 16.5 14.8 19.8-2.1-.9-3.2-2-2.3-3.7 3.3 2.2 4.4 2.1 3.4-.1 1.3.4 3.2 2 4.2 1.7-.3-.7-1.7-.4-1.7-1.6.9-.2.8-1.1.4-1.6 1.2-.1 3.1 1.5 4.3 1.4.9-1.3-3.2-1.4-2.4-2.6.8.4 1.7.6 2.6.6-.7-.6-1.8-1.2-1.4-2.2 1.3.4 1.1 1.1 2.2 1.5.1-1-.8-1.8-.7-2.9.5-.2 1.3.5 1.4-.4-.8-4.1-2.7-7.9-1.2-12.7-1.9-10.7-6.4-20.7-13.1-29.1-1.1-5.4-8.5-14.4-14.5-17.8-7.9-4.5-13.1-5.2-20.9-6.8-12.9-2.5-28.6 3.1-34.5 13.8-2.6 4.7-3.6 11.7-1 16.3.5.8 2.1 1 1.4 2.2 2.3-.6 4.5 2.6 7.6 3zM805.3 655.7c4.7-3.5 8.6-7.9 11.5-13 3.3-6 5.5-12.6 6.7-19.3.3-3.4-1.5-12-4.8-14.2-2.1-7.4-11.5-20.1-21.9-17.4-2.7-.6-4.1.6-6.6 1-5.1.8-10.7.4-15.1 2.2-13.7 5.5-24.2 24.5-22.8 40.8.8.6 1.4 1.4 1.7 2.3.7.2 3.9.3 2.6 1.3 8.7-.7 12.1-12.1 19.1-19.6 3.8-4 13.6-11.8 19-9.2 2.2 1.1 6 7.3 6.8 8.8 6.2 12.6-10.5 26.5-16.9 37.6-.2 1.3.9.8 1.3 1.7-1.2 1.6.8 2.1-1.3 4 2.5-.9 4.1-.4 6-2.8 1 .3.3 1.4 1.3 1 1.4-1.2 2.7-3 4.8-2.3 1-2 3.3-3.3 2.9-1.4 1.6-1.3 3.6-1.8 5.7-1.5zM1030.1 619.1c1-2.8-1.1-4.2-3.4-5.5.4-.7.6-1.6.4-2.4v-.5c-2.9-.1-3.7-2.8-6.4-4.8-1.7.2-3.4.2-5.2.1-.7.3-1 1.5-1.7 1.8-7.8 1.9-14 7.3-20.9 11.2-2.2-5.1-1.5-11.4-2.7-17.3-.9-4.6-3.1-9.1-.8-14.3.8 1 .7 2.3 1.1 3.5.7.4.1-2.6-.1-3.4-2.2-.8-2.3-3.4-4.1-3.6-1-.2-1.6.5-2.3.8-1-.7-.5-2.1-1.3-2.9-4.9-.4-9.7 2.1-12.2 6.3l-.4 1c-2.5 2.6-5.4 5.7-5.1 9.7.1.6.1 1.2 0 1.8l-1 2.3v.4c-.4 8.3-.2 16.7.7 25-11.5 1.5-21.9 5.6-33.7 6.4l3.3 1.2c-.8 2.9 4.9 6.1 4.9 8.7 6.7 2.2 6.9 8.8 10.5 12.1 2.3 2.2 5.9 1 8.4 1.1 2.4.4 4.9.5 7.3.4 2.2-.3 4.5-.7 6.9-1.2 9-1.6 16.8-6 24.2-10 2.4-2.7 5.3-5 8.5-6.8.1-.1.2-.1.3-.2-.1.2-.1.4-.2.6 8.7-6.6 18.6-11.9 25-21.5zM111.4 384c6.6.5 13.1-.2 19.4-2.1l1.4-1.5c-.1-.6.5-1.3.7-1.7 1.3-3.1 1-6.6-.9-9.3l.1-.9c-6.1-1.2-12-2.9-17.8-5.2-.5-.5-.7-1.4-1.2-1.9-2.6-1-4.8-2.8-6.1-5.3-5-8.4 1.1-25.3 10.8-24.2 6.5.8 12.2 6.7 16.3 11 .8.8 1.2 2 2 2.7 2.1 1.8 3.9.9 6.6 1.6 1.4.4 2.9 2.2 4.4 2s2.3-1.6 3-3.1c4.7.5.5-5.1 2.6-6.3-2.7-1.3-1.2-4-1.4-6.1-.4-7.2-6.9-13-12.6-16.4-12-7.1-28.4-11.3-41.5-3.2-10 6.4-16.5 16.9-17.8 28.7-.6 5.4.9 7.5 1.7 11.7.9 5.1.5 11.2 4.2 13.4-.4-1.9-2.3-4.1-.8-6.1 1.4 1.1 2.1 2.9 4.4 3.1 6.3 7.9 14.4 14.2 23.7 18.2-.2.5-1.6-.3-1.2.9zM480.8 585.3c2-3.5 3.2-7.4 3.6-11.5 5.4-13.8 12.3-27.8 9.8-39.3-.7-.4-.6-1.1-1.7-1.4-.2-.5.2-1.2-.5-1.6-2.2-1.6-5.2-1.8-7.6-.6-1.6-1.7-3-5-5-5.4-.6-4-6.8-5.5-9.5-8.5-7.1-3.1-15.3-2.9-22.2.6-2.3.9-4.6 2.1-6.6 3.5.3-.1.6 0 .5.3-1.1.6-3.1 1.4-3.4 2.5 1-.5 2.5-2 3.2-1.6-2.4 1.9-4.6 4-6.6 6.3-2.5 3.4-6 8.2-6.6 12.3 0 .7.1 1.5.2 2.2 0 2.4-.9 5.1-.8 7 .5 2.7 1.5 5.2 2.9 7.5-.4.8.4 1.2.1 1.9 3.9 2.2 3.2 8 8.1 9.3.5.6 2 1.7 1.4 2-.9-.3-.6-1.5-1.5-1.3s.4.7-.3.6c-1.2-.2-1.3-1.7-2.2-1.4.5.8 1.2 1.4 2 1.8-.3.6-.6.2-.4.8 1 1.2 3.5 1.9 2.7 3.7 2.8 1.8 5.7 5.1 9.1 5.6-2.4-1.1-4.3-2.8-5.7-5 2.6.7 5.2 3 8.3 4.1.7-.8 3 0 3.7 1-1.1.2-2-.7-2.9-1.2.7 2.1 3.1 2.2 4.9 1.9-.5.8-.6.6-.4 1.4 2.2 1.2 3.5-.5 5.5.1-.1 1.3.1 2.6.8 3.8 2.8-.4 1.9 2.5 4.7 2.8.7-.7-.1-.9.2-1.5.7.6.6-.9 1.3-.4.4.5.2 1.2 1.1 1.6.4-1 .5-.2.7.1 1.2-1.6 2.9-1.8 4-3.8.6.2-.2.9.2 1.2.2-.5 1.5-1.6 1.8-.4.9-.9 1.8-1.8 2.9-2.5.2.5-.8 1.3.2 1.5zm-10.9-66.8l1.5.7-.2.4-1.5-.8c.1-.1.1-.2.2-.3zm-26.6 4.4c5.6-3.1 11.4-5.9 18.1-5.5.5.3.2.3 0 .5-1.8-.1-3.6.1-5.2.8-1.2-.9-1.6.5-2.6 0-3.3 1.8-6.7 3.2-10.3 4.2zm22 43c-1 .6-2.2.5-3.3.7-5.9-4.4-13-8.2-15.3-14.5-1.4-3.9-1.9-11.2 2.2-15 3.7-3.5 12.2-8 17.9-3.5 2.6 2.2 4.9 4.9 6.7 7.8-4.9 8.7-6.1 16.2-8.2 24.5zM746.5 620c2-3.5 3.2-7.4 3.6-11.5 5.4-13.8 12.3-27.8 9.8-39.3-.7-.4-.6-1.1-1.7-1.4-.2-.5.2-1.2-.5-1.6-2.2-1.6-5.2-1.8-7.6-.6-1.6-1.7-3-5-5-5.4-.6-4-6.8-5.5-9.5-8.5-7.1-3.1-15.3-2.9-22.2.6-2.3.9-4.6 2.1-6.6 3.5.3-.1.6 0 .5.3-1.1.6-3.1 1.4-3.4 2.5 1-.5 2.5-2 3.2-1.6-2.4 1.9-4.6 4-6.6 6.3-2.5 3.4-6 8.2-6.7 12.3 0 .7.1 1.5.2 2.2 0 2.4-.9 5.1-.8 7 .5 2.7 1.5 5.2 2.9 7.5-.4.8.4 1.2.1 1.9 3.9 2.2 3.2 8 8.1 9.3.5.6 2 1.7 1.4 2-.8-.3-.6-1.5-1.5-1.3s.4.7-.3.6c-1.2-.2-1.3-1.7-2.2-1.4.5.8 1.2 1.4 2 1.8-.3.6-.6.3-.4.8 1 1.2 3.5 1.9 2.7 3.7 2.8 1.8 5.7 5.1 9.1 5.6-2.4-1.1-4.3-2.8-5.7-5 2.6.7 5.2 3 8.3 4.1.7-.8 3 0 3.7 1.1-1.1.2-2-.7-2.9-1.2.7 2.1 3.1 2.2 4.9 1.9-.5.8-.6.6-.4 1.4 2.2 1.2 3.5-.5 5.5.1-.1 1.3.1 2.6.7 3.8 2.8-.4 1.9 2.5 4.7 2.8.7-.7-.1-.9.2-1.5.7.6.7-.9 1.3-.4.4.5.2 1.2 1.1 1.6.4-1 .5-.2.7.1 1.2-1.6 2.9-1.8 4-3.8.6.2-.2.9.2 1.2.2-.5 1.5-1.6 1.8-.4.9-.9 1.8-1.8 2.9-2.5.5.4-.5 1.2.4 1.4zm-10.8-66.8l1.5.7c-.1.1-.1.3-.2.4l-1.5-.8c0-.1.1-.2.2-.3zm-26.6 4.4c5.6-3.1 11.3-5.9 18.1-5.5.5.3.2.3 0 .5-1.8-.2-3.6.1-5.2.8-1.2-.9-1.6.5-2.6 0-3.3 1.8-6.8 3.2-10.3 4.2zm22 43c-1 .6-2.2.5-3.3.7-5.9-4.4-13-8.2-15.3-14.5-1.4-3.9-1.9-11.2 2.2-15 3.7-3.5 12.2-8 17.9-3.5 2.6 2.2 4.9 4.9 6.7 7.8-4.9 8.7-6.1 16.2-8.2 24.5zM539.5 621c4.7-3.5 8.6-7.9 11.5-13 3.2-6 5.5-12.6 6.8-19.3.3-3.4-1.5-12-4.8-14.2-2.1-7.4-11.5-20.1-21.9-17.4-2.7-.6-4.1.6-6.6 1-5.1.8-10.7.4-15.1 2.2-13.7 5.5-24.2 24.5-22.9 40.8.8.6 1.4 1.4 1.7 2.3.7.2 3.9.3 2.6 1.3 8.7-.7 12.1-12.1 19.1-19.6 3.8-4 13.6-11.8 19-9.2 2.2 1.1 6 7.3 6.8 8.8 6.2 12.6-10.5 26.5-16.9 37.6-.2 1.3.9.8 1.3 1.7-1.2 1.6.8 2.1-1.3 4 2.5-.9 4-.4 6-2.7 1 .3.3 1.4 1.3 1 1.4-1.2 2.7-3 4.7-2.3 1-2 3.3-3.3 2.9-1.5 1.7-1.4 3.8-1.8 5.8-1.5zM555 488.5c3.9 1.4 8.1 5.1 12.5 6.1 2.8.6 5.2-.6 7.7 1 2.8-.6 5.5-1.7 8-3.1 5.9-4.4 8-12.1 7.8-18.1-1.3-4.2-5.8-11.8-11.2-14.2 1.2 1.2 1.8 1.7 1 2.3-3.5-1.6-8.4-7-11-6.1.5 0 2 .7 1.8 1.5-3.5-.9-6.2-2.8-9.5-2.9-2.4-.1-4.7 1.2-7.5 2.1-6.1 1.8-9.6 2.7-14.8 6.8-11.4 8.9-10.1 23.9-8.7 34.8 2 2.9 1.9 5.5 2.9 8.3 2.8 4.6 9.3 7.9 11.2 13.3 3.5.1 7.6 3.8 11.3 4.4 4.5.7 6.2-3.3 7.3-7.5-7-11.1-12.7-22-8.2-31.9 2.8-2 4.7-7.6 9-9.1 1.4-.2 2.8-.1 4.1.2 1.4.2 3.2 4.4 2.7 5.7-3.7.7-7.3 2-10.6 3.7 3.8.4 8.5-2.2 11.6-1.9-2.8 1.4-5.8 2.3-8.9 2.6-2.9.2-6.3-.4-8.5 2zM690.2 566.6c-.5-2.7-4-4.3-2.9-7.6-2.9-1-4-2-6.8-2.1.2 1.5-1.7.8-2.5 1.2.1-.3.3-.5.5-.7-2.4-.7-3.7-.1-4.6 1-.9-1.2-2.3.9-4 .1-2.3 4-6.9 11.4-8.4 16.7-.2.9-1 6.2.5 4.2-1 1.4.1 2.3.6 3.7.5-.4 1-.6 1.6-.6 1.9 1.2 5.2 1.8 5.1 3.2 1.2.6 1.1-.4 2.2 0 .2 1 2.4 1.2 1.5 2.7 1.4-.7 3-.6 4.3.3.9-1.7 1.9.3 3.9.4.1-.3.1-.7.5-.6 7-.6 6-6.4 6.4-11.5.1-1.4 1.2-2.7 1.3-4 .1-2-2-4.4-.3-6.5.6 0 .9 1.2 1.1.1zM661.2 565.7c-.8-4.1-2.7-7.9-1.2-12.7-1.9-10.7-6.3-20.7-13.1-29.2-1.1-5.4-8.5-14.4-14.5-17.8-7.9-4.5-13.1-5.2-20.9-6.8-12.9-2.5-28.6 3.1-34.5 13.8-2.6 4.7-3.6 11.7-1 16.3.5.8 2.1 1 1.4 2.2 2.4-.6 4.5 2.7 7.7 3.1 3.6.5 6.4-2.1 7.6-6.1 3.6-1.4 4-4.7 6.8-6.1 4.5-2.3 14.1-1.8 21.1 2.9 4.8 3.5 9.1 7.7 12.6 12.5 2.1 3.2.8 7.1 1.1 10.4.4 2.6 1.1 5.2 2.1 7.6 2.5 7.4 5.3 16.5 14.8 19.8-2.1-.9-3.2-2-2.3-3.7 3.3 2.2 4.4 2.1 3.4-.1 1.3.4 3.2 2 4.2 1.7-.3-.7-1.7-.4-1.7-1.6.9-.2.8-1.1.4-1.6 1.2-.2 3.1 1.5 4.3 1.4.9-1.3-3.2-1.3-2.4-2.7.8.4 1.7.6 2.6.6-.7-.7-1.8-1.2-1.4-2.2 1.3.3 1.1 1.1 2.2 1.5.1-1-.8-1.8-.7-2.9.4-.1 1.2.6 1.4-.3zM690.5 538.8c-1.1-4.6-7.4-7.5-12.2-9.9-1 1.2-1.6.1-2 1.5-.8.2-1.7-1-2.5-.5-1.7 1.9-.7 4.7-3.2 5.8 1.4 2.6 3.4 5.1 2.4 7.7.8 1 1.5-.3 2.3.7.3.7 0 1.8-.7 1.8 1.8 1.6 3.8 4.4 6 2.4 2.4 1.2 3.6 3.6 5.3 3.7-1-.9-1.7-1.8-.3-2.8.1.2.4 1.6 1 1-.2-.4-.1-1 .2-1.3 1.3.8 2.5.2 3.8-.3.7-2.9 2.1-5.7.9-8.5.3-.3.6-.5 1-.5-.6-.8-1.3.4-2-.8zM923.3 615.2c6.6.5 13.1-.2 19.4-2.2l1.4-1.5c-.1-.6.5-1.3.7-1.7 1.3-3.1 1-6.6-.9-9.3l.1-.9c-6.1-1.2-12-2.9-17.8-5.2-.5-.5-.7-1.4-1.2-1.9-2.6-1-4.8-2.8-6.1-5.3-5-8.4 1.1-25.3 10.8-24.2 6.5.8 12.2 6.7 16.3 11 .8.8 1.2 2 2 2.7 2.1 1.8 3.9.9 6.6 1.6 1.4.4 2.9 2.2 4.4 2s2.3-1.6 3-3.1c4.7.5.5-5.1 2.6-6.3-2.7-1.3-1.2-4-1.4-6.1-.4-7.2-6.9-13-12.6-16.4-12-7.1-28.4-11.3-41.5-3.2-9.9 6.4-16.5 17-17.8 28.7-.6 5.4.9 7.5 1.7 11.7.9 5.1.5 11.2 4.2 13.4-.4-1.9-2.3-4.1-.8-6.1 1.4 1.1 2 2.9 4.4 3.1 6.2 7.9 14.4 14.2 23.7 18.2-.2.6-1.6-.2-1.2 1zM672.5 453.5c-.8-4.1-2.7-7.9-1.2-12.7-1.9-10.7-6.4-20.7-13.1-29.1-1.1-5.4-8.5-14.4-14.5-17.8-7.9-4.5-13.1-5.2-20.9-6.8-12.9-2.5-28.6 3.1-34.5 13.8-2.6 4.7-3.6 11.7-1 16.3.5.8 2.1 1 1.4 2.2 2.4-.5 4.5 2.7 7.7 3.1 3.6.5 6.4-2.1 7.6-6.1 3.6-1.5 4-4.7 6.8-6.1 4.5-2.3 14.1-1.8 21.1 2.9 4.8 3.5 9.1 7.7 12.6 12.5 2.1 3.2.8 7.1 1.1 10.4.4 2.6 1.1 5.2 2.1 7.6 2.5 7.4 5.3 16.5 14.8 19.8-2.1-.9-3.2-2-2.3-3.7 3.3 2.2 4.4 2.1 3.4-.1 1.3.4 3.2 2 4.2 1.7-.3-.7-1.7-.4-1.7-1.6.9-.2.8-1.1.4-1.6 1.2-.1 3.1 1.5 4.3 1.4.9-1.3-3.2-1.4-2.4-2.6.8.4 1.7.6 2.6.6-.7-.7-1.8-1.2-1.4-2.2 1.3.3 1.1 1.1 2.2 1.5.1-1-.8-1.8-.7-2.9.4-.3 1.2.4 1.4-.5zM22.5 338.2zM4.6 312.2c4.7-3.5 8.6-7.9 11.5-13 3.2-6 5.5-12.6 6.7-19.3.3-3.4-1.5-12-4.8-14.2-1.7-6.5-9.2-17.1-18-17.7v26.3c.4.7.7 1.2.9 1.5 2.3 4.7 1.4 9.5-.9 14.3V313c1.4-.7 3-1 4.6-.8zM28.2 340.8zM22.5 338.2c-.5 0-2.5-.3-1.9.1.8.1 2 .5 1.9-.1zM106.7 545.9c-.4-.9-1.2-1.5-1.6-2.4l-1.5-.3c-4.4-3.7-9.9-5.8-15.7-6.1-.6-.5-1.3-.9-2-1.1-12.8-1.3-19 9.6-19.5 20.6-.2 4.3-.7 7.5-2.7 9.9-3.2 3.9-7 7.4-11.2 10.3-4.1 2.9-10.1 3.7-13.7 6.3.9.5 1.4-.4 1.8.4-.3.9-.1 2.2-.8 2.2.8.2.6-.3 1.5.1.5.5 1.1.9 1.7 1.2-.1.4-1.5-.3-1.5.2 1.7.1.4 1 1.1 1.4 2.6.9 5.1 2.1 7.5 3.6-.5 0-1.9-.7-1.8-.1 1.1.3 2.2.8 3.2 1.3.1.4-.8 0-.8.3 5.7 2.3 9.1 1 13 1.1-.8 1-3.3.5-4.6 1 .9 1.5 4.9 0 6.4 1-.7.1-1.7-.2-1.7.4 1.7.2 2.4-.4 3.8-.5.3.3 1.2 1.5 1.6.8-.3-.1-.5-.5-.1-.5 5.4-.4 8-3.2 11.2-5.4-.2 1.2-1.7 1.2-1.6 2.5 1.9.1 1.2-2.1 3.6-1.7-1.6 1.8-4.7 3.3-5.3 5.1 4.4-3.2 8.1-6.9 12.4-10.1-.8-.8.3-1.3-.3-1.7-1.3.1-.8 1.8-2.7 1.4 1-1.7.1-5.4 3-6.3.1.4.1.9.5 1 .2-.3.1-.8.8-.8.1.4 0 .9.5 1 .9-3.2 3.2-5.1 3.8-8.5.5.7 0 .7.5 1 1.8-1.8-2.1-7.2-.1-8.8-2-3.5-2.8-7.5-2.1-11.5.8 0 .5 1 1.1 1.2-.7-2.3-2.2-5.2-.2-6 .3.5-.1 1.5.6 1.8-.3-4.5 6.8-3.1 10.3-3.7-.3-.5-1.8-.2-1.7-1 1.9 1.3 2.5-.2 3.3-.6zm-15.1 9.8c1.4 2 1 5.2 1.4 7.8-1.3-2.3-1.8-5.1-1.4-7.8zM271.2 401.9c-1-3.5-4.9-5.9-9.9-6.5 1.9.6 5.9 1.6 5.9 3.9-11.2-8.9-21.1-3.7-30.5-1.9 1.4-2.3-.3-3.6-2-5 .6-.7-.3-.5-.3-1.1-2.1-1.1-3.3-2.2-5.2-1-7.7 4.7-11.4 12.8-13.9 21l.2-.1c-1.8 4.5-5.6 8.4-7.8 13.5-3 7.1-2.2 14.7-1.8 20.4 1.5.2 1.6 1.7 2.4 2.4.3.2.9-.2 1.3.1 1.3 1 .9 2.9 2.7 3 .8 0 .3-1.1.8-1.6 3.8-2.3 6.9-5.8 8.7-9.9 5.7-12.8 17.4-18 27.6-22.4 6.4-.4 13.6 5.4 19.6 3.9 0-.4-.8-.5-.7-.9.6-.5 1.6.1 2.1-.9-.8-.4-.7-1-.9-1.6 1.3-.1 1.2-1.2 2.1-2-1.1-.6-2.3-.5-2.2-1.7.3-.7 1.2.4 1.6-.3-1-.9-1-2-1.2-3.1.6-.1 1.5.8 2 .5-1.1-.9-1.7-2.3-1.8-3.7 0 .3.8 0 .8-.4s-.5-1-.3-1.6c.7-.8.9-1.9.7-3zM217.4 326.9c.8.6 1.4 1.4 1.7 2.3.7.2 3.9.3 2.6 1.3 8.7-.7 12.1-12.1 19.1-19.6 3.8-4 13.6-11.8 19-9.2 2.2 1.1 6 7.3 6.8 8.8 6.2 12.6-10.5 26.5-16.9 37.6-.2 1.3.9.8 1.3 1.7-1.2 1.6.8 2.1-1.3 4 2.5-.9 4.1-.4 6-2.7 1 .3.3 1.4 1.3 1 1.4-1.2 2.7-3 4.7-2.3 1-2 3.3-3.4 2.9-1.5 1.6-1.2 3.7-1.7 5.8-1.4 4.7-3.5 8.6-7.9 11.5-13 3.2-6 5.5-12.6 6.7-19.3.3-3.4-1.5-12-4.8-14.2-2-7.3-11.5-20.1-21.8-17.3-2.7-.6-4.1.6-6.6 1-5.1.9-10.7.4-15.1 2.2-13.7 5.3-24.2 24.3-22.9 40.6zM44.2 398c-1.1-.9-1.7-2.3-1.8-3.7 0 .2.8 0 .8-.4s-.5-1-.3-1.6c.5-1 .7-2.1.5-3.1-1-3.5-4.9-5.9-9.9-6.5 1.9.6 5.9 1.6 5.9 3.9-11.2-8.9-21.1-3.7-30.5-1.9 1.4-2.3-.3-3.6-2-4.9.6-.7-.3-.5-.3-1.1-2.1-1.1-3.3-2.2-5.2-1-.5.3-1 .6-1.5 1v39c6.1-6.7 14.3-10.3 21.7-13.4 6.4-.4 13.6 5.4 19.6 3.9 0-.4-.8-.5-.7-.9.6-.5 1.6.1 2.1-.9-.8-.4-.7-1-.9-1.6 1.3-.1 1.2-1.2 2.2-2-1.1-.6-2.3-.5-2.2-1.7.3-.7 1.2.4 1.6-.3-1-.9-1-2-1.2-3.1.7-.3 1.6.6 2.1.3zM89.7 445c5.9-4.4 8-12.1 7.8-18.1-1.4-4.2-5.8-11.8-11.3-14.2 1.2 1.2 1.8 1.7 1 2.3-3.5-1.6-8.4-7-11-6.1.5 0 2 .7 1.8 1.5-3.5-.9-6.2-2.8-9.5-2.9-2.4-.1-4.7 1.2-7.5 2.1-6.1 1.8-9.6 2.7-14.8 6.8-11.4 8.9-10.1 23.9-8.7 34.8 2 2.9 1.9 5.5 2.9 8.3 2.8 4.6 9.3 7.9 11.2 13.3 3.5.1 7.6 3.8 11.3 4.4 4.5.7 6.2-3.3 7.3-7.5-7-11.1-12.7-22-8.2-31.9 2.8-2 4.7-7.6 9-9.1 1.4-.2 2.8-.1 4.1.2 1.4.2 3.2 4.5 2.7 5.7-3.7.7-7.3 2-10.6 3.7 3.8.4 8.5-2.2 11.6-1.9-2.8 1.4-5.8 2.3-8.9 2.6-3 .4-6.4-.2-8.5 2.2 3.9 1.4 8.1 5.1 12.5 6.1 2.8.6 5.2-.6 7.7 1 2.9-.8 5.6-1.9 8.1-3.3z"/><path fill="#A8005D" d="M118.5 333c8.5 2.6 11.9 9.9 18.8 14-5.9-4.9-10-12.8-18.8-14zM281.7 234.6c4.7-3.5 8.6-7.9 11.5-13 3.3-6 5.5-12.6 6.8-19.3.3-3.4-1.5-12-4.8-14.2-2.1-7.4-11.5-20.1-21.9-17.4-2.7-.6-4.1.6-6.6 1-5.1.8-10.7.4-15.1 2.2-13.7 5.4-24.2 24.5-22.9 40.8.8.6 1.4 1.4 1.7 2.3.7.2 3.9.3 2.6 1.3 8.7-.7 12.1-12.1 19.1-19.6 3.8-4 13.6-11.8 19-9.2 2.2 1.1 6 7.3 6.8 8.8 6.2 12.6-10.5 26.5-16.9 37.6-.2 1.3.9.8 1.3 1.7-1.2 1.6.8 2.1-1.3 4 2.5-.9 4-.4 6-2.7 1 .3.3 1.4 1.3 1 1.4-1.2 2.7-3 4.8-2.3 1-2 3.3-3.3 2.9-1.4 1.6-1.4 3.7-1.9 5.7-1.6zM73.2 289c-.5-.9-1.2-1.5-1.6-2.4l-1.5-.3c-4.4-3.7-9.9-5.8-15.7-6.1-.6-.5-1.3-.9-2-1.1-12.8-1.3-19 9.6-19.5 20.6-.2 4.3-.7 7.5-2.7 9.9-3.2 4-7 7.4-11.2 10.4-4.1 2.9-10.1 3.6-13.7 6.3 1 .5 1.4-.4 1.8.4-.3.9-.1 2.2-.8 2.2.8.2.6-.3 1.5 0 .5.5 1.1 1 1.7 1.3-.1.4-1.5-.3-1.5.2 1.7.1.4 1 1.1 1.4 2.6.9 5.1 2.1 7.5 3.6-.5 0-1.9-.6-1.8-.1 1.1.3 2.2.8 3.2 1.3.1.4-.8 0-.8.3 5.7 2.3 9.1 1 13 1.1-.8 1-3.2.5-4.6 1 .9 1.5 4.9 0 6.4 1-.6.1-1.6-.2-1.7.4 1.7.2 2.4-.4 3.8-.5.3.3 1.2 1.5 1.6.8-.3-.1-.5-.5-.1-.5 5.4-.4 8-3.2 11.2-5.4-.2 1.2-1.7 1.2-1.6 2.5 1.9.1 1.2-2.1 3.6-1.7-1.5 1.8-4.7 3.3-5.3 5.1 4.4-3.2 8.1-6.9 12.4-10.1-.8-.8.3-1.3-.3-1.7-1.3.1-.8 1.8-2.7 1.4 1-1.7.1-5.4 3-6.3.1.4.1.9.5 1 .2-.3.1-.9.7-.8.1.4.1.9.5 1 .9-3.2 3.2-5.1 3.8-8.5.5.7 0 .7.5 1 1.8-1.8-2.1-7.2-.1-8.8-2-3.5-2.8-7.5-2.1-11.5.8.1.5 1 1.1 1.1-.7-2.3-2.2-5.1-.2-5.9.3.5-.1 1.5.6 1.8-.3-4.5 6.8-3.1 10.3-3.7-.3-.5-1.8-.2-1.7-1 1.9 1.2 2.5-.3 3.4-.7zM58 298.9c1.4 2 1 5.2 1.4 7.8-1.3-2.4-1.8-5.2-1.4-7.8zM56.1 595.1zM61.7 597.7c-2.7-.5-5.5-.8-8.3-.9 2.7.7 5.5 1.1 8.3.9zM61.7 597.7zM38.2 569.1c4.7-3.5 8.6-7.9 11.5-13 3.3-6 5.5-12.6 6.7-19.3.3-3.4-1.5-12-4.8-14.2-2.1-7.4-11.5-20.1-21.9-17.4-2.7-.6-4.1.6-6.6 1-5.1.8-10.6.3-15.1 2.1-2.9 1.2-5.6 2.9-8 5V545c2.7-3.8 5.2-8.3 8.6-12 3.8-4 13.6-11.8 19-9.2 2.2 1.1 6 7.3 6.8 8.8 6.2 12.6-10.5 26.5-16.9 37.6-.2 1.3.9.8 1.3 1.7-1.2 1.6.8 2.1-1.3 4 2.5-.9 4.1-.4 6-2.8 1 .3.3 1.4 1.3 1 1.4-1.2 2.7-3 4.8-2.3.9-2 3.3-3.3 2.9-1.4 1.6-1.2 3.7-1.7 5.7-1.3zM56.1 595.1c-.5 0-2.5-.3-1.9.1.8.1 2 .5 1.9-.1zM155.7 230c-1.1-4.6-7.4-7.5-12.2-9.9-1 1.2-1.6.1-2 1.5-.8.2-1.7-1-2.5-.5-1.7 1.9-.7 4.7-3.2 5.8 1.4 2.6 3.4 5.1 2.4 7.8.8 1 1.5-.3 2.3.7.3.7.1 1.8-.7 1.8 1.8 1.6 3.8 4.4 6.1 2.4 2.4 1.1 3.6 3.6 5.3 3.7-1-.9-1.7-1.8-.3-2.8.1.2.4 1.6 1 1-.2-.4-.1-1 .2-1.3 1.3.8 2.5.1 3.8-.3.7-2.9 2.1-5.7.9-8.6.3-.3.6-.5 1-.5-.8-.8-1.4.4-2.1-.8zM27.2 146c-2.4-.1-4.7 1.2-7.5 2.1-6.1 1.8-9.6 2.7-14.8 6.8-1.9 1.5-3.6 3.3-5 5.4v39c3.1 4 8.6 7.2 10.4 12.1 3.5.1 7.6 3.8 11.3 4.4 4.5.7 6.2-3.3 7.4-7.5-7-11.1-12.7-22-8.2-31.9 2.8-2 4.7-7.6 9-9.1 1.4-.2 2.8-.1 4.1.2 1.4.2 3.2 4.4 2.7 5.7-3.7.7-7.3 2-10.6 3.7 3.8.4 8.5-2.2 11.6-1.9-2.8 1.4-5.8 2.3-9 2.6-3 .4-6.4-.2-8.5 2.2 3.9 1.4 8.1 5.1 12.5 6.1 2.8.6 5.2-.6 7.7 1 2.8-.6 5.5-1.7 8-3.1 5.9-4.4 8-12.1 7.8-18.1-1.4-4.2-5.8-11.8-11.3-14.2 1.2 1.2 1.8 1.7 1 2.3-3.5-1.6-8.4-7-11-6.1.5 0 2 .7 1.8 1.5-3.4-1.2-6.1-3.1-9.4-3.2zM126.7 266.3c-.2.9-1 6.2.5 4.2-1 1.4.1 2.4.6 3.7.5-.4 1-.6 1.6-.6 1.9 1.2 5.2 1.8 5.1 3.3 1.2.6 1.1-.4 2.2 0 .2 1 2.4 1.2 1.6 2.7 1.4-.7 3-.6 4.3.3.9-1.7 1.9.2 3.9.4.1-.3.1-.7.5-.6 7-.6 6-6.4 6.4-11.5.1-1.4 1.2-2.7 1.3-4 .1-2-2-4.4-.3-6.5.5.1.9 1.3 1 .2-.5-2.7-4-4.3-2.9-7.6-2.9-1-4-2-6.8-2.1.2 1.5-1.7.8-2.5 1.2.1-.3.3-.5.5-.6-2.4-.7-3.7-.1-4.6 1-.9-1.2-2.3.9-4 0-2.3 3.8-7 11.3-8.4 16.5zM112 215.1c-1.1-5.4-8.5-14.4-14.5-17.8-7.9-4.5-13.1-5.2-20.9-6.8-12.9-2.5-28.6 3.1-34.5 13.8-2.6 4.7-3.6 11.7-1 16.3.5.8 2.1 1 1.4 2.2 2.4-.6 4.5 2.7 7.7 3.1 3.6.5 6.4-2.1 7.6-6.1 3.6-1.4 4-4.7 6.8-6.1 4.5-2.3 14.1-1.8 21.2 2.9 4.8 3.5 9 7.7 12.6 12.4 2.1 3.2.8 7.1 1.1 10.4.4 2.6 1.1 5.2 2.1 7.6 2.5 7.4 5.3 16.5 14.8 19.8-2.1-.9-3.2-2-2.3-3.7 3.3 2.2 4.4 2.1 3.4-.1 1.3.4 3.2 2 4.2 1.7-.3-.7-1.7-.4-1.7-1.6.9-.2.8-1.1.4-1.6 1.2-.1 3.1 1.5 4.3 1.4.9-1.3-3.2-1.4-2.4-2.6.8.4 1.7.6 2.6.6-.7-.7-1.8-1.2-1.4-2.2 1.3.4 1.1 1.1 2.2 1.5.1-1-.8-1.8-.7-2.9.5-.2 1.3.5 1.4-.4-.8-4.1-2.7-7.9-1.2-12.7-2-10.7-6.5-20.7-13.2-29.1zM98.9 657.5c1.2 1.2 1.8 1.7 1 2.3-3.5-1.6-8.4-7-11-6.1.5 0 2 .7 1.8 1.5-3.5-.9-6.2-2.8-9.5-2.9-2.4-.1-4.7 1.2-7.5 2.1-6 1.6-9.5 2.6-14.7 6.6-11.4 8.9-10.1 23.8-8.7 34.8 2 2.9 1.9 5.5 2.9 8.3 2.8 4.6 9.3 7.9 11.2 13.3 3.5.1 7.6 3.8 11.3 4.4 4.5.7 6.2-3.3 7.3-7.5-7-11.1-12.7-22-8.2-31.9 2.8-2 4.7-7.6 9-9.1 1.4-.2 2.8-.1 4.1.2 1.4.2 3.2 4.4 2.7 5.7-3.7.7-7.3 2-10.6 3.7 3.8.4 8.5-2.3 11.6-1.9-2.8 1.4-5.9 2.3-9 2.6-3 .4-6.4-.2-8.5 2.2 3.9 1.4 8.1 5.1 12.5 6.1 2.8.6 5.2-.6 7.7 1 2.8-.6 5.5-1.7 8-3.1 5.9-4.3 8-12.1 7.8-18.1-1.3-4.2-5.7-11.8-11.2-14.2zM335.3 636.8zM347.6 682.3c1.2 1.2 1.8 1.7 1 2.3-3.5-1.6-8.4-7-11-6.1.5 0 2 .7 1.8 1.5-3.5-.9-6.2-2.8-9.5-2.9-2.4-.1-4.7 1.2-7.5 2.1-6.1 1.8-9.6 2.7-14.8 6.8-11.4 8.9-10.1 23.8-8.7 34.8 2 2.9 1.9 5.5 2.9 8.3 2.8 4.6 9.3 7.9 11.2 13.3 3.5.1 7.6 3.8 11.3 4.4 4.5.7 6.2-3.3 7.4-7.5-7-11.1-12.7-22-8.2-31.9 2.8-2 4.7-7.6 9-9.1 1.4-.2 2.8-.1 4.1.2 1.4.2 3.2 4.5 2.7 5.7-3.7.7-7.3 2-10.6 3.7 3.8.4 8.5-2.2 11.6-1.9-2.8 1.4-5.8 2.3-9 2.6-3 .4-6.4-.2-8.5 2.2 3.9 1.4 8.1 5.1 12.5 6.1 2.8.6 5.2-.6 7.7 1 2.8-.6 5.5-1.7 8-3.1 5.9-4.3 8-12.2 7.8-18.1-1.3-4.4-5.8-12-11.2-14.4zM335.2 636.9c-2.7-.5-5.5-.8-8.3-1 2.8.8 5.6 1.1 8.3 1zM302.6 677.7c0-.4-.8-.5-.7-.9.6-.5 1.6.1 2.1-.9-.8-.4-.7-1-.9-1.6 1.3-.1 1.2-1.2 2.1-2-1.1-.6-2.3-.5-2.2-1.7.3-.7 1.2.4 1.6-.3-1-.9-1-2-1.2-3.2.6-.1 1.5.8 2 .5-1.1-.9-1.7-2.3-1.7-3.7 0 .2.8 0 .8-.4s-.5-1-.3-1.6c.5-1 .7-2.1.5-3.1-1-3.5-4.9-5.9-9.9-6.5 1.9.7 5.9 1.7 5.9 3.9-11.2-8.9-21.1-3.7-30.5-1.9 1.4-2.3-.3-3.6-2-4.9.6-.7-.3-.5-.3-1.1-2.1-1.1-3.3-2.2-5.2-1-7.7 4.7-11.4 12.8-13.9 21l.2-.1c-1.8 4.5-5.6 8.4-7.8 13.4-2.9 7.1-2.2 14.7-1.8 20.5 1.5.2 1.6 1.7 2.4 2.4.3.2.9-.2 1.3.1 1.3 1 .9 2.9 2.6 3 .8 0 .3-1.1.8-1.6 3.8-2.3 6.9-5.8 8.7-9.8 5.7-12.8 17.4-18.1 27.5-22.4 6.7-.5 13.9 5.3 19.9 3.9zM329.7 634.3zM251.7 644.7c1-2.8-1.1-4.2-3.4-5.5.4-.7.6-1.6.4-2.4v-.5c-2.9-.2-3.7-2.8-6.4-4.8-1.7.2-3.4.3-5.2.1-.7.3-1 1.5-1.7 1.8-7.8 1.9-14 7.3-20.9 11.2-2.2-5.1-1.5-11.4-2.7-17.3-.9-4.6-3.1-9.1-.8-14.3.8 1 .7 2.3 1.1 3.5.7.4.1-2.6-.1-3.4-2.2-.8-2.3-3.4-4.1-3.6-1-.2-1.6.5-2.4.8-1-.7-.4-2.1-1.3-2.9-4.4-.4-8.7 1.5-11.3 5-.3.4-.6.9-.9 1.3l-.4 1c-2.6 2.6-5.4 5.7-5.1 9.7.1.6.1 1.2 0 1.8l-1 2.3v.4c-.4 8.3-.2 16.7.7 25-11.5 1.5-21.9 5.6-33.7 6.4l3.3 1.2c-.8 2.9 4.9 6.1 4.9 8.7 6.7 2.2 6.9 8.8 10.4 12.1 2.3 2.2 5.9 1 8.4 1.1 2.4.4 4.9.5 7.4.4 2.2-.3 4.5-.7 6.9-1.2 9-1.6 16.8-6 24.2-10 2.4-2.7 5.3-5 8.5-6.8.1-.1.2-.1.3-.2l-.2.6c8.8-6.5 18.8-11.9 25.1-21.5zM380.3 585.1c-.5-.9-1.2-1.5-1.6-2.4l-1.5-.3c-4.4-3.6-9.9-5.8-15.7-6.1-.6-.5-1.3-.9-2-1.1-12.8-1.3-19 9.6-19.5 20.6-.2 4.3-.7 7.5-2.7 9.9-3.2 3.9-7 7.4-11.2 10.4-4.1 2.9-10.1 3.6-13.7 6.3 1 .5 1.4-.4 1.9.4-.3.9-.1 2.2-.8 2.2.8.2.6-.3 1.5 0 .5.5 1.1.9 1.7 1.3-.1.4-1.5-.3-1.5.2 1.7.1.4 1 1.1 1.4 2.6.9 5.1 2.1 7.5 3.6-.5 0-1.9-.7-1.8-.1 1.1.3 2.2.8 3.2 1.3.1.4-.8 0-.8.3 5.7 2.3 9.1 1 13 1.1-.8 1-3.3.5-4.6 1 .9 1.5 4.9 0 6.4 1-.6.1-1.6-.2-1.7.4 1.7.2 2.4-.4 3.8-.5.3.3 1.2 1.5 1.6.8-.3-.1-.5-.5-.1-.5 5.4-.4 8-3.2 11.2-5.4-.2 1.2-1.7 1.2-1.6 2.5 1.9.1 1.2-2.1 3.6-1.7-1.5 1.8-4.7 3.2-5.3 5.1 4.4-3.2 8.1-6.9 12.4-10.1-.8-.8.3-1.3-.3-1.7-1.3.1-.8 1.8-2.7 1.4 1-1.7.1-5.4 3-6.3.1.4 0 .9.5 1 .2-.3.1-.8.8-.8.1.4 0 .9.5 1 .9-3.2 3.2-5.1 3.8-8.5.5.7 0 .7.5 1 1.8-1.8-2.1-7.2-.1-8.8-2-3.5-2.7-7.5-2-11.4.8 0 .5 1 1.1 1.2-.7-2.3-2.2-5.1-.2-5.9.3.5-.1 1.5.6 1.8-.4-4.5 6.8-3.1 10.3-3.7-.3-.5-1.8-.2-1.7-1 1.7.9 2.3-.5 3.1-.9zm-15.2 9.8c1.4 2 1 5.2 1.4 7.8-1.2-2.4-1.7-5.1-1.4-7.8zM425.6 629c8.5 2.6 11.9 9.9 18.8 14-5.9-4.8-10-12.7-18.8-14z"/><path fill="#A8005D" d="M329.7 634.3c-.5 0-2.5-.3-1.9.1.8.1 1.9.5 1.9-.1zM439.3 676.4c-.1-.6.5-1.3.7-1.7 1.3-3.1 1-6.6-.9-9.3l.1-.9c-6.1-1.2-12-3-17.8-5.2-.5-.5-.7-1.4-1.2-1.9-2.6-1-4.8-2.8-6.1-5.3-5-8.4 1.1-25.3 10.8-24.2 6.5.8 12.2 6.7 16.3 11 .8.8 1.2 2 2 2.7 2.1 1.8 3.9.9 6.6 1.6 1.4.4 2.9 2.2 4.4 2s2.3-1.6 3-3c4.7.5.5-5.1 2.6-6.3-2.7-1.3-1.2-4-1.4-6.1-.4-7.2-6.9-13-12.6-16.4-12-7.1-28.4-11.3-41.5-3.2-10 6.4-16.5 16.9-17.8 28.7-.6 5.4.9 7.5 1.6 11.7.9 5.1.5 11.2 4.2 13.4-.4-1.9-2.3-4.1-.8-6.1 1.4 1.1 2 2.9 4.4 3.1 6.3 7.9 14.4 14.1 23.7 18.1-.1.6-1.5-.2-1.1 1 6.6.5 13.2-.2 19.5-2.1l1.3-1.6zM152 589.8c8.5 2.6 11.9 9.9 18.8 14-5.9-4.8-9.9-12.7-18.8-14zM383.1 537.2c3.3 2.2 4.4 2.1 3.4-.1 1.3.4 3.2 2 4.2 1.7-.3-.7-1.7-.4-1.7-1.6.9-.2.8-1.1.4-1.6 1.2-.2 3.1 1.5 4.3 1.4.9-1.3-3.2-1.3-2.4-2.7.8.4 1.7.6 2.6.6-.7-.7-1.8-1.2-1.4-2.2 1.3.3 1.1 1.1 2.2 1.5.1-1-.8-1.8-.7-2.9.5-.2 1.3.5 1.4-.4-.8-4.1-2.7-7.9-1.2-12.7-1.9-10.7-6.4-20.7-13.1-29.1-1.1-5.4-8.5-14.4-14.5-17.8-7.9-4.5-13.1-5.2-20.9-6.8-12.9-2.5-28.6 3.1-34.5 13.8-2.6 4.7-3.6 11.7-1 16.3.5.8 2.1 1 1.4 2.2 2.4-.5 4.5 2.7 7.7 3.1 3.6.5 6.4-2.1 7.6-6.1 3.6-1.4 4-4.7 6.8-6.1 4.5-2.3 14.1-1.8 21.1 2.9 4.8 3.5 9.1 7.7 12.6 12.5 2.1 3.2.8 7.1 1.1 10.4.4 2.6 1.1 5.2 2.1 7.6 2.5 7.4 5.3 16.5 14.8 19.8-2.1-.8-3.2-2-2.3-3.7zM172.1 248.3c-2.4 1.9-4.6 4-6.6 6.3-2.5 3.4-6 8.2-6.7 12.3 0 .7.1 1.5.2 2.2 0 2.4-.9 5.1-.8 7 .5 2.7 1.5 5.2 2.9 7.5-.4.8.4 1.2.1 1.9 3.9 2.2 3.2 8 8.1 9.3.5.6 2 1.7 1.4 2-.9-.3-.6-1.5-1.5-1.3s.4.7-.3.6c-1.2-.2-1.3-1.7-2.2-1.4.5.8 1.2 1.4 2 1.8-.3.6-.6.2-.4.9 1 1.2 3.5 1.9 2.6 3.7 2.8 1.9 5.7 5.1 9.1 5.6-2.4-1.1-4.3-2.8-5.7-5 2.6.7 5.2 3 8.3 4.1.8-.8 3 0 3.7 1-1.1.2-2-.6-2.9-1.2.7 2.1 3.1 2.2 4.9 1.9-.5.8-.6.6-.4 1.4 2.2 1.1 3.5-.5 5.5.1-.1 1.3.1 2.6.8 3.8 2.8-.4 1.9 2.5 4.7 2.9.7-.7-.1-.9.2-1.5.7.6.6-.9 1.3-.4.4.5.2 1.2 1.1 1.6.4-1 .5-.2.7.1 1.2-1.6 2.9-1.8 4-3.8.6.2-.2.9.2 1.2.2-.5 1.5-1.6 1.8-.4.9-.9 1.8-1.8 2.9-2.5.8.2-.2 1 .7 1.2 2-3.5 3.2-7.4 3.6-11.5 5.4-13.8 12.3-27.8 9.8-39.3-.7-.4-.6-1.1-1.7-1.4-.2-.5.2-1.2-.5-1.6-2.2-1.6-5.2-1.8-7.6-.6-1.6-1.7-3-5-5-5.4-.6-4-6.8-5.5-9.5-8.5-7.1-3.1-15.3-2.9-22.2.6-2.3.9-4.6 2.1-6.6 3.5.3-.1.6 0 .5.3-1.1.6-3.1 1.4-3.4 2.5.7-.4 2.2-1.9 2.9-1.5zm28.7-4l1.5.7-.2.4-1.5-.8c.1 0 .1-.1.2-.3zm3.6 23c-4.9 8.7-6.1 16.2-8.2 24.5-1 .6-2.2.5-3.3.7-5.9-4.4-13-8.2-15.3-14.5-1.4-3.9-1.9-11.2 2.2-15 3.7-3.5 12.2-8 17.9-3.5 2.7 2.3 4.9 4.9 6.7 7.8zm-12.1-24c.6.3.2.3 0 .5-1.8-.1-3.6.1-5.2.8-1.2-.9-1.6.5-2.6 0-3.3 1.8-6.7 3.1-10.3 4.1 5.6-3 11.4-5.7 18.1-5.4zM138.4 158.3c-.9 1.4.1 2.4.6 3.7.5-.4 1-.6 1.6-.6 1.9 1.2 5.2 1.8 5.1 3.3 1.2.6 1.1-.4 2.2 0 .2 1 2.4 1.3 1.6 2.7 1.4-.7 3-.6 4.3.3.9-1.7 1.9.3 3.9.4.1-.3.1-.7.5-.6 7-.6 6-6.4 6.4-11.5.1-1.4 1.2-2.7 1.3-4 .1-2-2-4.4-.3-6.5.5.1.8 1.3 1 .2-.5-2.7-4-4.3-2.9-7.6-2.9-1-4-2-6.8-2.1.2 1.5-1.7.8-2.5 1.2.1-.3.3-.5.5-.6-2.4-.7-3.7-.1-4.6.9-.9-1.2-2.3.9-4 .1-2.3 4-6.9 11.4-8.4 16.7-.2.7-.9 6 .5 4zM149.4 122.5c.8 1 1.5-.3 2.3.7.3.7 0 1.8-.7 1.8 1.8 1.6 3.8 4.4 6.1 2.4 2.4 1.1 3.6 3.6 5.3 3.7-1-.9-1.7-1.8-.3-2.8.1.2.4 1.6 1 1-.2-.4-.1-1 .2-1.3 1.3.8 2.5.1 3.8-.3.7-2.8 2.1-5.7.9-8.5.3-.3.6-.5 1-.5-.7-.9-1.3.2-2-1-1.1-4.6-7.4-7.5-12.2-9.9-1 1.2-1.6.1-2 1.5-.8.2-1.7-1-2.5-.5-1.7 1.9-.7 4.7-3.2 5.8 1.3 2.7 3.3 5.3 2.3 7.9zM525.2 683.9c1-2.8-1.2-4.2-3.4-5.5.4-.7.6-1.6.4-2.4v-.5c-2.9-.1-3.7-2.8-6.4-4.8-1.7.2-3.4.2-5.1.1-.7.3-1 1.5-1.7 1.8-7.8 1.9-14 7.3-20.9 11.2-2.2-5.1-1.5-11.4-2.7-17.3-.9-4.6-3.1-9.1-.8-14.3.8 1 .7 2.3 1.1 3.5.7.4.1-2.6-.1-3.4-2.2-.8-2.3-3.4-4.1-3.6-1-.2-1.6.5-2.4.8-1-.7-.5-2.1-1.3-2.9-4.4-.4-8.7 1.5-11.3 5-.3.4-.6.9-.9 1.3l-.4 1c-2.6 2.6-5.4 5.7-5.1 9.7.1.6.1 1.2 0 1.8l-1 2.3v.4c-.4 8.3-.2 16.7.7 25-11.5 1.5-21.9 5.7-33.7 6.4l3.3 1.2c-.8 2.9 4.9 6.1 4.9 8.7 6.7 2.2 6.9 8.8 10.5 12.1 2.3 2.2 5.9 1 8.4 1.1 2.4.4 4.9.5 7.4.4 2.2-.3 4.5-.7 6.9-1.2 9-1.6 16.8-6 24.2-10 2.4-2.7 5.3-5 8.5-6.8.1 0 .2-.1.3-.2l-.2.6c8.7-6.6 18.6-11.9 24.9-21.5zM199.2 85.9c.3.2.9-.2 1.3.1 1.3 1 .9 2.9 2.6 3.1.8 0 .3-1.1.8-1.6 3.8-2.3 6.9-5.8 8.7-9.8 5.7-12.8 17.4-18 27.6-22.4 6.4-.4 13.6 5.4 19.6 3.9 0-.4-.8-.5-.7-.9.6-.5 1.6.1 2.1-.9-.8-.4-.7-1-.9-1.6 1.3-.1 1.2-1.2 2.1-2-1.1-.6-2.3-.5-2.2-1.7.3-.7 1.2.4 1.6-.3-1-.9-1-2-1.2-3.2.6-.1 1.5.8 2 .5-1.1-.9-1.7-2.3-1.7-3.7 0 .3.8 0 .8-.4s-.5-1-.3-1.6c.5-1 .7-2.1.5-3.1-1-3.5-4.9-5.9-9.9-6.5 1.9.7 5.9 1.6 5.9 3.9-11.2-8.9-21.1-3.7-30.5-1.9 1.4-2.3-.3-3.6-2-5 .6-.7-.3-.5-.3-1.1-2.1-1.1-3.3-2.2-5.2-1-7.7 4.7-11.4 12.8-13.9 21l.2-.1c-1.8 4.5-5.6 8.4-7.8 13.5-2.9 7.1-2.2 14.7-1.8 20.4 1.6.3 1.7 1.8 2.6 2.4z"/><path fill="#A8005D" d="M165.8 637.2c-.1-.6.5-1.3.7-1.7 1.3-3.1 1-6.6-.9-9.3l.1-.9c-6.1-1.2-12-2.9-17.8-5.2-.5-.5-.7-1.4-1.2-1.9-2.6-.9-4.8-2.8-6.1-5.3-5-8.4 1.1-25.3 10.8-24.2 6.5.8 12.2 6.7 16.3 11 .8.8 1.2 2 2 2.7 2.1 1.8 3.9.9 6.6 1.6 1.4.4 2.9 2.2 4.4 2s2.3-1.6 3-3c4.7.5.5-5.1 2.6-6.3-2.7-1.3-1.2-4-1.4-6.1-.4-7.2-6.9-13-12.6-16.4-12-7.1-28.4-11.3-41.5-3.2-9.9 6.4-16.4 17-17.7 28.7-.6 5.4.9 7.5 1.7 11.7.9 5.1.5 11.2 4.2 13.4-.4-1.9-2.3-4.1-.8-6.1 1.4 1.1 2 2.9 4.4 3.1 6.3 7.9 14.4 14.2 23.7 18.2-.1.6-1.5-.2-1.1 1 6.6.5 13.1-.2 19.4-2.2l1.2-1.6zM172.4 171.4c-.4.8.4 1.2.1 1.9 3.9 2.2 3.2 8 8.1 9.3.4.6 2 1.7 1.4 2-.9-.3-.6-1.5-1.5-1.3-.9.1.4.7-.3.6-1.2-.2-1.3-1.7-2.2-1.4.5.8 1.2 1.4 2 1.8-.3.6-.6.3-.4.9 1 1.2 3.5 1.9 2.7 3.7 2.8 1.9 5.7 5.1 9.1 5.6-2.4-1.1-4.3-2.8-5.7-5 2.6.7 5.2 2.9 8.3 4.1.7-.8 3 .1 3.7 1.1-1.1.2-2-.6-2.9-1.2.7 2.1 3.1 2.2 4.9 1.9-.5.8-.6.6-.4 1.4 2.2 1.1 3.5-.5 5.5.1-.1 1.3.1 2.6.7 3.8 2.8-.4 1.9 2.5 4.7 2.9.7-.7-.1-.9.2-1.5.7.6.6-.9 1.3-.4.4.5.2 1.2 1.1 1.6.4-1.1.4-.2.7.1 1.2-1.6 2.9-1.8 4-3.8.6.2-.2.9.2 1.2.2-.6 1.5-1.6 1.8-.4.9-.9 1.8-1.8 2.9-2.6.8.2-.2 1 .8 1.2 2-3.5 3.2-7.4 3.6-11.4 5.4-13.8 12.3-27.8 9.8-39.3-.7-.4-.6-1.1-1.7-1.4-.2-.5.2-1.3-.5-1.6-2.2-1.6-5.2-1.8-7.6-.6-1.6-1.7-3-5-5-5.4-.6-4-6.8-5.5-9.5-8.5-7.1-3.1-15.3-2.9-22.2.6-2.3.9-4.6 2.1-6.6 3.5.3-.1.6 0 .5.3-1.1.6-3.1 1.4-3.4 2.6 1-.5 2.5-2 3.2-1.6-2.4 1.9-4.6 4-6.6 6.2-2.5 3.4-6 8.2-6.6 12.3 0 .7.1 1.5.2 2.2 0 2.4-.9 5.1-.8 7-.1 2.6.9 5.1 2.4 7.5zm39.7-39.3l1.5.7c-.1.1-.1.3-.2.4l-1.5-.7c0-.1.1-.3.2-.4zm3.6 23c-4.9 8.7-6.1 16.2-8.2 24.5-1 .6-2.2.5-3.3.7-5.9-4.4-13-8.2-15.3-14.5-1.4-3.9-1.9-11.2 2.2-15 3.7-3.4 12.2-8 17.9-3.5 2.6 2.2 4.9 4.9 6.7 7.8zm-12.1-24c.6.3.2.3 0 .5-1.8-.2-3.6.1-5.2.8-1.2-.9-1.6.5-2.6 0-3.3 1.8-6.7 3.1-10.3 4.1 5.6-3 11.3-5.8 18.1-5.4zM54 652.9c0-.4-.8-.5-.7-.9.6-.5 1.6.1 2.1-.9-.8-.4-.7-1-.9-1.6 1.3-.1 1.2-1.2 2.2-2-1.1-.6-2.3-.5-2.2-1.7.3-.7 1.2.4 1.6-.3-1-.9-1-2-1.2-3.1.6-.1 1.5.8 2 .5-1.1-.9-1.7-2.3-1.8-3.7 0 .2.8 0 .8-.4s-.5-1-.3-1.6c.5-1 .7-2.1.5-3.1-1-3.5-4.9-5.9-9.9-6.5 1.9.7 5.9 1.6 5.9 3.9-11.2-8.9-21.1-3.7-30.5-1.9 1.4-2.3-.3-3.6-2-4.9.6-.7-.3-.5-.3-1.1-2.1-1.1-3.3-2.2-5.2-1-7.7 4.7-11.4 12.8-13.9 21l.2-.1c-.1.3-.3.6-.4.9v35.7c2.9-2.2 5.3-5.2 6.8-8.5 5.7-12.8 17.4-18.1 27.5-22.4 6.4-.7 13.6 5.1 19.7 3.7zM139.7 490.4c2.1 3.2.8 7.1 1.1 10.4.4 2.6 1.1 5.2 2.1 7.6 2.5 7.4 5.3 16.5 14.8 19.8-2.1-.9-3.2-2-2.3-3.7 3.3 2.2 4.4 2.2 3.4-.1 1.3.4 3.2 2 4.2 1.7-.3-.7-1.7-.4-1.7-1.6.9-.2.8-1.1.4-1.6 1.2-.2 3.1 1.5 4.3 1.4.9-1.3-3.2-1.3-2.4-2.7.8.4 1.7.6 2.6.6-.7-.7-1.8-1.2-1.4-2.2 1.3.3 1.1 1.1 2.2 1.5.1-1-.8-1.8-.6-2.9.5-.2 1.3.5 1.4-.4-.8-4.1-2.7-7.9-1.2-12.6-1.9-10.7-6.4-20.7-13.1-29.1-1.1-5.4-8.5-14.4-14.5-17.8-7.9-4.5-13.1-5.2-20.9-6.8-12.9-2.5-28.6 3.1-34.5 13.8-2.6 4.7-3.6 11.7-1 16.3.5.8 2.1 1 1.4 2.2 2.4-.5 4.5 2.7 7.7 3.1 3.6.5 6.4-2.1 7.6-6.1 3.6-1.5 4-4.7 6.8-6.1 4.5-2.3 14.1-1.8 21.2 2.9 4.6 3.4 8.9 7.6 12.4 12.4zM9.4 12.9C6.7 10.7 3.5 9.1 0 8.3v24c3.9 1.4 7.8 3 11.2 2.1 0-.4-.8-.5-.7-.9.6-.5 1.6.1 2.1-.9-.8-.4-.7-1-.9-1.6 1.3-.1 1.1-1.2 2.1-2-1.1-.6-2.3-.5-2.2-1.7.3-.7 1.2.4 1.6-.3-1-.9-1-2-1.2-3.1.6-.1 1.5.8 2 .5-1.1-.9-1.7-2.3-1.8-3.7 0 .2.8 0 .8-.4s-.5-1-.3-1.6c.5-1 .7-2.1.5-3.1-1-3.5-4.9-5.9-9.9-6.5 2.1.6 6.1 1.6 6.1 3.8zM7.6 77.4c2 2.9 1.9 5.6 2.9 8.3 2.8 4.6 9.3 7.9 11.2 13.3 3.5.1 7.6 3.8 11.3 4.4 4.5.7 6.2-3.3 7.3-7.5-7-11.1-12.7-22-8.2-31.9 2.8-2 4.7-7.6 9-9.1 1.4-.2 2.8-.1 4.1.2 1.4.2 3.2 4.5 2.7 5.7-3.7.7-7.3 2-10.6 3.7 3.8.4 8.5-2.2 11.6-1.9-2.8 1.4-5.8 2.3-8.9 2.6-3 .4-6.4-.2-8.5 2.2 3.9 1.4 8.1 5.1 12.5 6.1 2.8.6 5.2-.6 7.7 1 2.8-.6 5.5-1.7 8-3.1 5.9-4.3 8-12.2 7.8-18.1-1.3-4.2-5.8-11.8-11.2-14.2 1.2 1.2 1.8 1.7 1 2.3-3.5-1.6-8.4-7-11-6.1.5 0 2 .7 1.8 1.5-3.5-.9-6.2-2.8-9.5-2.9-2.4-.1-4.7 1.2-7.5 2.1-6.1 1.8-9.6 2.7-14.8 6.8C4.9 51.5 6.2 66.4 7.6 77.4zM53.4 92.1c-2.6 4.7-3.6 11.7-1 16.3.5.8 2.1 1 1.4 2.2 2.4-.6 4.5 2.7 7.7 3.1 3.6.5 6.4-2.1 7.6-6.1 3.6-1.4 4-4.7 6.8-6.1 4.5-2.3 14.1-1.8 21.1 2.9 4.8 3.5 9.1 7.7 12.6 12.5 2.1 3.2.8 7.1 1.1 10.4.4 2.6 1.1 5.2 2.1 7.6 2.5 7.4 5.3 16.5 14.8 19.8-2.1-.9-3.2-2-2.3-3.7 3.3 2.2 4.4 2.1 3.4-.1 1.3.4 3.2 2.1 4.2 1.7-.3-.7-1.7-.4-1.7-1.6.9-.2.8-1.1.4-1.6 1.2-.1 3.1 1.5 4.3 1.4.9-1.3-3.2-1.4-2.4-2.6.8.4 1.7.6 2.6.6-.7-.7-1.8-1.2-1.4-2.2 1.3.3 1.1 1.1 2.2 1.5.1-1-.8-1.8-.6-2.9.5-.2 1.3.5 1.4-.4-.8-4.1-2.7-7.9-1.2-12.6-1.9-10.7-6.4-20.7-13.1-29.2-1.1-5.4-8.5-14.4-14.5-17.8C101 80.7 95.8 80 88 78.4c-13-2.7-28.7 3-34.6 13.7zM834.5 569.5c-.5 0-2.5-.3-1.9.1.8.1 1.9.5 1.9-.1zM840.1 572.1zM840 572.1c-2.7-.5-5.5-.8-8.3-1 2.8.8 5.6 1.2 8.3 1zM823.2 681.7zM823.2 681.7c-.5 0-2.5-.3-1.9.1.8.1 1.9.5 1.9-.1z"/><path fill="#A8005D" d="M873.8 632.5c-.5-.9-1.2-1.5-1.6-2.4l-1.5-.3c-4.4-3.6-9.9-5.8-15.6-6.1-.6-.5-1.3-.9-2-1.1-12.8-1.3-19 9.6-19.5 20.6-.2 4.3-.7 7.5-2.7 9.9-3.2 3.9-7 7.4-11.2 10.4-4.1 2.9-10.1 3.7-13.7 6.3 1 .5 1.4-.4 1.8.3-.3.9-.1 2.2-.8 2.2.8.2.6-.3 1.5.1.5.5 1.1 1 1.7 1.3-.1.4-1.5-.3-1.5.2 1.7.1.4 1 1.1 1.4 2.6.9 5.1 2.1 7.5 3.5-.5 0-1.9-.6-1.8-.1 1.1.3 2.2.8 3.2 1.3.1.4-.8 0-.8.3 5.7 2.3 9.1 1 13 1.1-.8 1-3.3.5-4.6 1 .9 1.5 4.9 0 6.4 1-.7.1-1.7-.2-1.7.4 1.7.2 2.4-.4 3.8-.5.3.3 1.2 1.5 1.6.8-.3-.1-.5-.5-.1-.5 5.4-.4 8-3.2 11.2-5.4-.2 1.2-1.7 1.2-1.6 2.5 1.9.1 1.2-2.1 3.6-1.7-1.5 1.8-4.7 3.3-5.3 5.1 4.4-3.2 8.1-6.9 12.4-10.1-.8-.8.3-1.3-.3-1.7-1.3.1-.8 1.8-2.7 1.4 1-1.7.1-5.3 3-6.3.1.4 0 .9.5 1 .2-.3.1-.8.8-.8.1.4 0 .9.5 1 .9-3.2 3.2-5.1 3.8-8.5.5.7 0 .7.5 1 1.8-1.8-2.1-7.2-.1-8.8-2-3.5-2.8-7.5-2.1-11.5.8.1.5 1 1.1 1.2-.7-2.3-2.2-5.1-.2-5.9.3.5-.1 1.5.6 1.8-.3-4.5 6.8-3.1 10.3-3.7-.3-.5-1.8-.2-1.7-1 1.8 1.2 2.4-.3 3.2-.7zm-15.2 9.9c1.4 2 1 5.2 1.4 7.8-1.2-2.4-1.7-5.2-1.4-7.8zM256.2 102.2c2 2.9 1.9 5.6 2.9 8.3 2.8 4.6 9.3 7.9 11.2 13.3 3.5.1 7.6 3.8 11.3 4.4 4.5.7 6.2-3.3 7.4-7.5-7-11.1-12.7-22-8.2-31.9 2.8-2 4.7-7.6 9-9.1 1.4-.2 2.8-.1 4.1.2 1.4.2 3.2 4.4 2.7 5.7-3.7.7-7.3 2-10.6 3.7 3.8.4 8.5-2.2 11.6-1.9-2.8 1.4-5.8 2.3-9 2.6-3 .4-6.4-.2-8.5 2.2 3.9 1.4 8.1 5.1 12.5 6.1 2.8.6 5.2-.6 7.7 1 2.8-.6 5.5-1.7 8-3.1 5.9-4.3 8-12.2 7.8-18.1-1.4-4.2-5.8-11.8-11.3-14.2 1.2 1.2 1.8 1.7 1 2.3-3.5-1.6-8.4-7-11-6.1.5 0 2 .7 1.8 1.5-3.5-.9-6.2-2.8-9.5-2.9-2.4-.1-4.7 1.2-7.5 2.1-6.1 1.8-9.6 2.7-14.8 6.8-11.3 8.7-10 23.6-8.6 34.6zM834.5 569.5zM1015.4 725.8c.4-.7.6-1.6.4-2.4v-.5c-2.9-.1-3.7-2.8-6.4-4.8-1.7.2-3.4.2-5.2.1-.7.3-1 1.5-1.7 1.8-7.8 1.9-14 7.3-20.9 11.2-2.2-5.1-1.5-11.4-2.7-17.3-.9-4.6-3.1-9.1-.8-14.3.8 1 .7 2.3 1.1 3.5.7.4.1-2.6-.1-3.4-2.2-.8-2.3-3.4-4.1-3.6-1-.2-1.6.5-2.3.8-1-.7-.5-2.1-1.3-2.9-4.4-.4-8.7 1.5-11.3 5-.3.4-.6.9-.9 1.3l-.4 1c-2.5 2.6-5.4 5.7-5.1 9.7.1.6.1 1.2 0 1.8l-1 2.3v.4c-.4 8.3-.2 16.7.7 25-11.5 1.5-21.9 5.6-33.7 6.4l3.3 1.2c-.8 2.9 4.9 6.1 4.9 8.7 6.7 2.2 6.9 8.8 10.5 12.1 2.3 2.2 5.8 1 8.4 1.1 2.4.4 4.9.5 7.3.4 2.2-.3 4.5-.7 6.9-1.2 9-1.6 16.8-6 24.2-10 2.4-2.7 5.3-5 8.5-6.8l.3-.2c-.1.2-.1.4-.2.6 8.8-6.8 18.8-12.2 25.1-21.7.9-2.6-1.3-3.9-3.5-5.3zM1032.3 644.8c-2 3.8-5.2 7.4-7 11.9-3 7.1-2.2 14.7-1.8 20.5 1.5.2 1.6 1.7 2.4 2.4.3.2.9-.2 1.3.1 1.3 1 .9 2.9 2.7 3 .8 0 .3-1.1.8-1.5s1.1-.7 1.6-1.1v-35.3zM932.9 723.8c-.1-.6.5-1.3.7-1.7 1.3-3.1 1-6.6-.9-9.3l.1-.9c-6.1-1.2-12-3-17.8-5.2-.5-.5-.7-1.4-1.2-1.9-2.6-.9-4.8-2.8-6.2-5.3-5-8.4 1.1-25.3 10.8-24.2 6.5.7 12.2 6.7 16.2 11 .8.8 1.2 2 2 2.7 2.1 1.8 3.9.9 6.5 1.6 1.4.4 2.9 2.2 4.4 2s2.3-1.6 3-3.1c4.7.5.5-5 2.6-6.2-2.7-1.3-1.2-4-1.3-6.1-.4-7.2-6.9-13-12.6-16.4-12-7.1-28.4-11.3-41.5-3.2-10 6.4-16.5 16.9-17.8 28.7-.6 5.4.9 7.5 1.7 11.7.9 5.1.5 11.2 4.2 13.4-.4-1.9-2.3-4.1-.8-6.1 1.4 1.1 2 2.9 4.4 3.1 6.3 7.9 14.4 14.2 23.7 18.2-.1.6-1.5-.2-1.1 1 6.6.5 13.1-.3 19.4-2.2l1.5-1.6z"/><path fill="#A8005D" d="M919.1 676.5c8.5 2.6 11.9 9.9 18.8 14-5.9-4.9-10-12.8-18.8-14zM873.8 540.3c-2-3.5-2.8-7.5-2.1-11.5.8.1.5 1 1.1 1.2-.7-2.3-2.2-5.1-.2-5.9.3.5-.1 1.5.6 1.8-.4-4.5 6.8-3.1 10.3-3.7-.3-.5-1.8-.2-1.7-1 1.7 1 2.3-.4 3.1-.8-.5-.9-1.2-1.5-1.6-2.4l-1.5-.3c-4.4-3.6-9.9-5.8-15.7-6.1-.6-.5-1.3-.9-2-1.1-12.8-1.3-19 9.6-19.5 20.6-.2 4.3-.7 7.5-2.7 9.9-3.2 3.9-7 7.4-11.2 10.4-4.1 2.9-10.1 3.6-13.7 6.3 1 .5 1.5-.4 1.8.4-.3.9-.1 2.2-.8 2.2.8.2.6-.3 1.5 0 .5.5 1.1 1 1.7 1.3-.1.4-1.5-.3-1.5.2 1.7.1.5 1 1.2 1.4 2.6.9 5.1 2.1 7.5 3.6-.5 0-1.9-.7-1.8-.1 1.1.3 2.2.8 3.2 1.3.1.4-.8 0-.8.3 5.7 2.3 9.1 1 13 1.1-.8 1-3.3.5-4.6 1 .9 1.5 4.9 0 6.4 1-.7.1-1.6-.2-1.7.4 1.7.2 2.4-.4 3.8-.5.3.3 1.2 1.5 1.6.8-.3-.1-.5-.5-.1-.5 5.4-.4 8-3.2 11.2-5.4-.2 1.2-1.7 1.2-1.6 2.5 1.9.1 1.2-2.1 3.6-1.7-1.5 1.8-4.7 3.3-5.3 5.1 4.4-3.2 8.1-6.9 12.4-10.1-.8-.8.3-1.3-.3-1.7-1.3.1-.8 1.8-2.7 1.4 1-1.7.1-5.3 3-6.3.1.4 0 .9.5 1 .2-.3.1-.8.8-.8.1.4 0 .9.5 1 .9-3.2 3.2-5.1 3.8-8.5.5.7 0 .7.5 1 2-1.8-1.9-7.2 0-8.8zm-3.9-10.2c1.4 2 1 5.2 1.4 7.8-1.2-2.3-1.7-5.1-1.4-7.8zM563 649.6c-2.7-.5-5.5-.8-8.3-.9 2.7.8 5.5 1.1 8.3.9zM608 597.8c-.5-.9-1.2-1.5-1.6-2.4l-1.5-.3c-4.4-3.7-9.9-5.8-15.6-6.1-.6-.5-1.3-.9-2-1.1-12.8-1.3-19 9.6-19.5 20.6-.2 4.3-.7 7.5-2.7 9.9-3.2 3.9-7 7.4-11.2 10.4-4.1 2.9-10.1 3.7-13.7 6.3 1 .5 1.4-.4 1.8.4-.3.9-.1 2.2-.8 2.2.8.2.6-.3 1.5.1.5.5 1.1.9 1.7 1.3-.1.4-1.5-.3-1.5.2 1.7.1.4 1 1.1 1.4 2.6.9 5.1 2.1 7.5 3.6-.5 0-1.9-.6-1.8-.1 1.1.3 2.2.8 3.2 1.3.1.4-.8 0-.8.3 5.7 2.3 9.1 1 13 1.1-.8 1-3.3.5-4.6 1 .9 1.5 4.9 0 6.4 1-.7.1-1.7-.2-1.7.4 1.7.2 2.4-.4 3.8-.5.3.2 1.2 1.5 1.6.8-.3-.1-.5-.5-.1-.5 5.4-.4 8-3.2 11.2-5.4-.2 1.2-1.7 1.2-1.6 2.5 1.9.1 1.2-2.1 3.6-1.7-1.5 1.8-4.7 3.3-5.3 5.1 4.4-3.2 8.1-6.9 12.4-10.1-.8-.8.3-1.3-.3-1.7-1.3.1-.8 1.8-2.7 1.4 1-1.7.1-5.3 3-6.3.1.4 0 .9.5 1 .2-.3.1-.9.8-.8.1.4 0 .9.5 1 .9-3.2 3.2-5.1 3.8-8.5.5.7 0 .7.5 1 1.8-1.8-2.1-7.2-.1-8.8-2-3.5-2.8-7.5-2.1-11.5.8.1.5 1 1.1 1.2-.7-2.3-2.2-5.1-.2-5.9.3.5-.1 1.5.6 1.8-.3-4.5 6.8-3.1 10.3-3.7-.3-.5-1.8-.2-1.7-1 1.8 1 2.4-.5 3.2-.9zm-15.2 9.9c1.4 2 1 5.2 1.4 7.8-1.2-2.4-1.7-5.2-1.4-7.8zM557.4 647zM828.8 684.3zM579.1 706.8c-1.1-.9-1.7-2.3-1.8-3.7 0 .3.8 0 .8-.4s-.5-1-.3-1.6c.5-1 .7-2.1.5-3.1-1-3.5-4.9-5.9-9.9-6.5 1.9.7 6 1.6 5.9 3.9-11.2-8.9-21.1-3.7-30.5-1.9 1.4-2.3-.3-3.6-2-5 .6-.7-.3-.5-.3-1.1-2.1-1.1-3.3-2.2-5.2-1-7.7 4.7-11.4 12.8-13.9 21l.2-.1c-1.8 4.5-5.7 8.4-7.8 13.5-3 7.1-2.2 14.7-1.8 20.4 1.5.2 1.6 1.7 2.4 2.4.3.2.9-.2 1.3.1 1.3 1 .8 2.9 2.7 3 .8 0 .3-1.1.8-1.6 3.8-2.3 6.9-5.8 8.7-9.8 5.7-12.8 17.4-18 27.5-22.4 6.4-.4 13.6 5.4 19.6 3.9 0-.4-.8-.5-.7-.9.6-.5 1.6.1 2.1-.9-.8-.4-.7-1-.9-1.6 1.3-.1 1.2-1.2 2.2-2-1.1-.6-2.3-.5-2.2-1.7.3-.7 1.2.4 1.6-.3-1-.9-1-2-1.2-3.2.8 0 1.7.9 2.2.6zM563 649.6z"/><path fill="#A8005D" d="M557.4 647c-.5 0-2.5-.3-1.9.1.8.1 2 .5 1.9-.1zM806.9 719.6c-1.1-.9-1.7-2.3-1.8-3.7 0 .3.8 0 .8-.4s-.5-1-.3-1.6c.5-1 .7-2.1.5-3.1-1-3.5-4.9-5.9-9.9-6.5 1.9.7 6 1.6 5.9 3.9-11.2-8.9-21.1-3.7-30.5-1.9 1.4-2.3-.3-3.6-2-5 .6-.7-.3-.5-.3-1.1-2.1-1.1-3.3-2.2-5.2-1-7.7 4.7-11.4 12.8-13.9 21 .1 0 .1-.1.2-.1-1.8 4.5-5.7 8.4-7.8 13.4-3 7.1-2.2 14.7-1.8 20.5 1.5.2 1.6 1.7 2.4 2.4.3.2.9-.2 1.3.1 1.3 1 .8 2.9 2.7 3 .8 0 .3-1.1.8-1.6 3.8-2.3 6.9-5.8 8.7-9.8 5.7-12.8 17.4-18.1 27.5-22.4 6.4-.4 13.6 5.4 19.6 3.9 0-.4-.8-.5-.7-.9.6-.5 1.6.1 2.1-.9-.8-.4-.7-1-.9-1.6 1.3-.1 1.2-1.2 2.2-2-1.1-.6-2.3-.5-2.2-1.7.3-.7 1.2.4 1.6-.3-1-.9-1-2-1.2-3.2.7 0 1.6.8 2.2.6zM828.8 684.3c-2.7-.5-5.5-.8-8.3-.9 2.7.8 5.5 1.1 8.3.9zM753 696.7c1-2.8-1.1-4.2-3.4-5.5.4-.7.6-1.6.4-2.4v-.5c-2.9-.1-3.7-2.8-6.4-4.8-1.7.2-3.4.2-5.2.1-.7.3-1 1.5-1.7 1.8-7.8 1.9-14 7.3-20.9 11.2-2.2-5.1-1.5-11.4-2.7-17.3-.9-4.6-3.1-9.1-.8-14.2.8 1 .7 2.3 1.1 3.5.7.4.1-2.6-.1-3.4-2.2-.8-2.3-3.4-4.1-3.6-1-.2-1.6.5-2.3.8-1-.7-.4-2.1-1.3-2.9-4.4-.4-8.7 1.5-11.3 5-.3.4-.6.9-.9 1.3l-.4 1c-2.6 2.6-5.4 5.7-5.1 9.7.1.6.1 1.2 0 1.8l-1 2.3v.4c-.4 8.3-.2 16.7.7 25-11.5 1.5-21.9 5.6-33.7 6.4l3.3 1.2c-.8 2.9 4.9 6.1 4.9 8.7 6.7 2.2 6.9 8.8 10.5 12.1 2.3 2.2 5.8 1 8.4 1.1 2.4.4 4.9.5 7.3.4 2.2-.3 4.5-.7 6.9-1.2 9-1.6 16.8-6 24.2-10 2.4-2.7 5.3-5 8.5-6.8.1 0 .2-.1.3-.2-.1.2-.1.4-.2.6 8.7-6.7 18.7-12.1 25-21.6zM653.3 641.8c8.5 2.6 11.9 9.9 18.8 14-5.9-4.9-9.9-12.8-18.8-14z"/><path fill="#A8005D" d="M667.1 689.1c-.1-.6.5-1.3.7-1.7 1.3-3.1 1-6.6-.9-9.3l.1-.9c-6.1-1.2-12-2.9-17.8-5.2-.5-.5-.7-1.4-1.2-1.9-2.6-.9-4.8-2.8-6.2-5.3-5-8.4 1.1-25.3 10.8-24.2 6.5.7 12.2 6.7 16.3 11 .8.8 1.2 2 2 2.7 2.1 1.8 3.9.9 6.6 1.6 1.4.4 2.9 2.2 4.4 2s2.3-1.6 3-3.1c4.7.5.5-5 2.6-6.2-2.7-1.3-1.2-4-1.3-6.1-.4-7.2-6.9-13-12.6-16.4-12-7.1-28.4-11.3-41.5-3.2-10 6.4-16.5 16.9-17.8 28.7-.6 5.4.9 7.5 1.7 11.7.9 5.1.5 11.2 4.2 13.4-.4-1.9-2.3-4.1-.8-6.1 1.4 1.1 2 2.9 4.4 3.1 6.3 7.9 14.4 14.2 23.7 18.1-.1.6-1.5-.2-1.1 1 6.6.5 13.1-.2 19.4-2.2l1.3-1.5zM558.6 247c-.2 4.3-.7 7.5-2.7 9.9-3.2 3.9-7 7.4-11.2 10.4-4.1 2.9-10.1 3.6-13.7 6.3 1 .5 1.5-.4 1.8.4-.3.9-.1 2.2-.8 2.2.8.2.6-.3 1.5 0 .5.5 1.1 1 1.7 1.3-.1.4-1.5-.3-1.5.2 1.7.1.4 1 1.2 1.4 2.6.9 5.1 2.1 7.5 3.6-.5 0-1.9-.6-1.8-.1 1.1.3 2.2.8 3.2 1.3.1.4-.8 0-.8.3 5.7 2.3 9.1 1 13 1.1-.8 1-3.2.5-4.6 1 .9 1.5 4.9 0 6.4 1-.7.1-1.7-.2-1.7.4 1.7.2 2.4-.4 3.8-.5.3.3 1.2 1.5 1.6.8-.3-.1-.5-.5-.1-.5 5.4-.4 8-3.2 11.2-5.4-.2 1.2-1.7 1.2-1.6 2.5 1.9.1 1.2-2.1 3.6-1.7-1.5 1.8-4.7 3.3-5.3 5.1 4.4-3.2 8.1-6.9 12.4-10.1-.8-.8.3-1.3-.3-1.7-1.3.1-.8 1.8-2.7 1.4 1-1.7.1-5.4 3-6.3.1.4.1.9.5 1 .2-.3.1-.9.7-.8.1.4.1.9.5 1 .9-3.2 3.2-5.1 3.8-8.5.5.7 0 .7.5 1 1.8-1.8-2.1-7.2-.1-8.8-2-3.5-2.8-7.5-2.1-11.5.8.1.5 1 1.1 1.1-.7-2.3-2.2-5.1-.2-5.9.3.5-.1 1.5.6 1.8-.3-4.5 6.8-3.1 10.3-3.7-.3-.5-1.8-.2-1.7-1 1.7 1 2.3-.4 3.1-.8-.5-.9-1.2-1.5-1.6-2.4l-1.5-.3c-4.5-3.6-10-5.7-15.7-5.9-.6-.5-1.3-.9-2-1.1-12.7-1.4-18.8 9.5-19.3 20.5zm25.1-.9c1.4 2 1 5.2 1.4 7.8-1.3-2.3-1.8-5.1-1.4-7.8zM693 476.2c7-.6 6-6.4 6.4-11.5.1-1.4 1.2-2.7 1.3-4 .1-2-2-4.4-.3-6.5.5.1.8 1.3 1 .2-.5-2.7-4-4.3-2.9-7.6-2.9-1-4-2-6.8-2.1.2 1.5-1.7.8-2.5 1.2.1-.3.3-.5.5-.6-2.4-.7-3.7-.1-4.6.9-.9-1.2-2.3.9-4 .1-2.3 4-6.9 11.4-8.4 16.7-.3.9-1 6.2.5 4.2-1 1.4.1 2.3.6 3.7.5-.4 1-.6 1.6-.6 1.9 1.2 5.2 1.8 5.1 3.3 1.2.6 1.1-.4 2.2 0 .2 1 2.4 1.2 1.5 2.7 1.4-.7 3-.6 4.3.2.9-1.7 1.9.3 3.9.4.3-.4.2-.8.6-.7zM916.9 194.5c-1.1-4.6-7.4-7.5-12.2-9.9-1 1.2-1.6.1-2 1.5-.8.2-1.7-1-2.5-.5-1.7 1.9-.7 4.7-3.2 5.8 1.4 2.6 3.4 5.1 2.4 7.8.8 1 1.5-.3 2.3.7.3.7 0 1.8-.7 1.8 1.8 1.6 3.8 4.4 6.1 2.4 2.4 1.1 3.6 3.6 5.3 3.7-1-.9-1.7-1.8-.3-2.8.1.2.4 1.6 1 1-.2-.4-.1-1 .2-1.3 1.3.8 2.5.1 3.8-.3.7-2.9 2.1-5.7.9-8.5.3-.3.6-.5 1-.5-.8-.8-1.4.3-2.1-.9zM828.1 530.5c3.2-6 5.5-12.6 6.7-19.3.3-3.4-1.5-12-4.8-14.2-2.1-7.4-11.5-20.1-21.9-17.4-2.7-.6-4.1.6-6.6 1-5.1.8-10.7.4-15.1 2.2-13.7 5.5-24.2 24.5-22.8 40.8.8.6 1.4 1.4 1.7 2.3.7.2 3.9.3 2.6 1.3 8.7-.7 12.1-12.1 19.1-19.6 3.8-4 13.6-11.8 19-9.2 2.2 1.1 6 7.3 6.8 8.8 6.2 12.6-10.5 26.5-16.9 37.6-.2 1.3.9.8 1.3 1.7-1.2 1.6.8 2.1-1.3 4 2.5-.9 4.1-.4 6-2.7 1 .3.3 1.4 1.3 1 1.4-1.2 2.7-3 4.8-2.3.9-2 3.3-3.3 2.9-1.4 1.7-1.2 3.7-1.8 5.8-1.5 4.5-3.7 8.5-8 11.4-13.1zM384.2 367.6c8.5 2.6 11.9 9.9 18.8 14-5.9-4.8-10-12.7-18.8-14zM543.8 213c-2.1-7.4-11.5-20.1-21.9-17.4-2.7-.6-4.1.6-6.6 1-5.1.9-10.7.4-15.1 2.2-13.7 5.4-24.2 24.5-22.8 40.8.8.6 1.4 1.4 1.7 2.3.7.2 3.9.3 2.6 1.3 8.7-.7 12.1-12.1 19.1-19.6 3.8-4.1 13.6-11.8 19-9.2 2.2 1.1 6 7.3 6.8 8.8 6.2 12.6-10.5 26.5-16.9 37.6-.2 1.3.9.8 1.3 1.7-1.2 1.6.8 2.1-1.3 4 2.6-.9 4.1-.4 6-2.7 1 .3.3 1.4 1.3 1 1.4-1.2 2.7-3 4.7-2.3 1-2 3.3-3.3 2.9-1.4 1.6-1.2 3.7-1.8 5.8-1.4 4.7-3.5 8.6-7.9 11.5-13 3.2-6 5.5-12.6 6.7-19.3.3-3.6-1.5-12.2-4.8-14.4zM395.5 255.4c8.5 2.6 11.9 9.9 18.8 14-5.9-4.9-10-12.7-18.8-14zM888 230.8c-.3.9-1 6.2.5 4.2-1 1.4.1 2.4.6 3.7.5-.4 1-.6 1.6-.6 1.9 1.2 5.2 1.8 5.1 3.3 1.2.6 1.1-.4 2.2 0 .2 1 2.4 1.2 1.5 2.7 1.4-.7 3-.6 4.3.3.9-1.7 1.9.3 3.9.4.1-.3.1-.7.5-.6 7-.6 6-6.4 6.4-11.5.1-1.4 1.2-2.7 1.3-4 .1-2-2-4.4-.3-6.5.5.1.8 1.3 1 .2-.5-2.7-4-4.3-2.9-7.6-2.9-1-4-2-6.8-2.1.2 1.5-1.7.8-2.5 1.2.1-.3.3-.5.5-.6-2.4-.7-3.7-.1-4.6.9-.9-1.2-2.3.9-4 .1-2.3 3.8-6.9 11.3-8.3 16.5zM963.8 170.2c1.5.2 1.6 1.7 2.4 2.4.3.2.9-.2 1.3.1 1.3 1 .8 2.9 2.7 3.1.8 0 .3-1.1.8-1.6 3.8-2.3 6.9-5.8 8.7-9.9 5.7-12.9 17.4-18.1 27.5-22.4 6.4-.4 13.6 5.4 19.6 3.9 0-.4-.8-.5-.7-.9.6-.5 1.6.1 2.1-.9-.8-.4-.7-1-.9-1.6 1.3-.1 1.2-1.2 2.2-2-1.1-.6-2.3-.5-2.2-1.7.3-.7 1.2.4 1.6-.3-1-.9-1-2.1-1.2-3.1.6-.1 1.5.8 2 .5-1.1-.9-1.7-2.3-1.7-3.7 0 .2.8 0 .8-.4s-.5-1-.3-1.6c.5-1 .7-2.1.5-3.1-1-3.5-4.9-5.9-9.9-6.5 1.9.7 5.9 1.7 5.9 3.9-11.2-8.9-21-3.7-30.5-1.9 1.4-2.3-.3-3.6-2-4.9.6-.7-.3-.5-.3-1.1-2.1-1.1-3.3-2.2-5.2-1-7.7 4.7-11.4 12.8-13.9 21l.2-.1c-1.8 4.5-5.7 8.4-7.8 13.4-2.8 7-2.1 14.7-1.7 20.4zM1006.5 532.6c2-3.5 3.2-7.4 3.6-11.5 5.4-13.8 12.3-27.8 9.8-39.3-.7-.4-.6-1.1-1.7-1.4-.2-.5.2-1.2-.5-1.6-2.2-1.6-5.2-1.8-7.6-.6-1.6-1.7-3-5-5-5.4-.6-4-6.8-5.5-9.5-8.5-7.1-3.1-15.3-2.9-22.2.6-2.3.9-4.6 2.1-6.6 3.5.3-.1.6 0 .5.3-1.1.6-3.1 1.4-3.4 2.5 1-.5 2.5-2 3.2-1.6-2.4 1.9-4.6 4-6.6 6.3-2.5 3.4-6 8.2-6.7 12.3 0 .7.1 1.5.2 2.2 0 2.4-.9 5.1-.8 7 .5 2.7 1.5 5.2 2.9 7.5-.4.8.4 1.2.1 1.9 3.9 2.2 3.2 8 8.1 9.3.5.6 2 1.7 1.4 2-.8-.3-.6-1.5-1.5-1.3s.4.7-.3.6c-1.2-.2-1.3-1.7-2.2-1.4.5.8 1.2 1.4 2 1.8-.3.6-.6.2-.4.8 1 1.2 3.5 1.9 2.7 3.7 2.8 1.8 5.7 5.1 9.1 5.6-2.4-1.1-4.3-2.8-5.7-5 2.7.7 5.2 3 8.3 4.1.7-.8 3 0 3.7 1-1.1.2-2-.7-2.9-1.2.7 2.1 3.1 2.2 4.9 1.9-.5.8-.6.6-.4 1.4 2.2 1.2 3.5-.5 5.5.1-.1 1.3.1 2.6.8 3.8 2.8-.4 1.9 2.5 4.7 2.8.7-.7-.1-.9.2-1.5.7.6.7-.9 1.3-.4.4.5.2 1.2 1.1 1.6.4-1 .5-.2.7.1 1.2-1.6 2.9-1.8 4-3.8.6.2-.2.9.2 1.2.2-.5 1.5-1.6 1.8-.4.9-.9 1.8-1.8 2.9-2.5.3.5-.7 1.3.3 1.5zm-10.9-66.9l1.5.7-.2.4-1.5-.8c.1 0 .1-.1.2-.3zm-26.6 4.5c5.6-3.1 11.4-5.9 18.1-5.5.5.3.2.3 0 .5-1.8-.1-3.6.1-5.2.8-1.2-.9-1.6.5-2.6 0-3.3 1.8-6.7 3.2-10.3 4.2zm22 43c-1 .6-2.2.5-3.3.7-5.9-4.4-13-8.2-15.3-14.5-1.4-3.9-1.9-11.2 2.2-15 3.7-3.5 12.2-8 17.9-3.5 2.6 2.2 4.9 4.9 6.7 7.8-4.9 8.7-6.1 16.2-8.2 24.5zM302 116.9c-2.6 4.7-3.6 11.7-1 16.3.5.8 2.1 1 1.4 2.2 2.4-.6 4.5 2.7 7.7 3.1 3.6.5 6.4-2.1 7.6-6.1 3.6-1.4 4-4.7 6.8-6.1 4.5-2.3 14.1-1.8 21.1 2.9 4.8 3.5 9.1 7.7 12.6 12.5 2.1 3.2.8 7.1 1.1 10.4.4 2.6 1.1 5.2 2.1 7.6 2.5 7.4 5.3 16.5 14.8 19.8-2.1-.9-3.2-2-2.3-3.7 3.3 2.2 4.4 2.1 3.4-.1 1.3.4 3.2 2.1 4.2 1.7-.3-.7-1.7-.4-1.7-1.6.9-.2.8-1.1.4-1.6 1.2-.1 3.1 1.5 4.3 1.4.9-1.3-3.2-1.4-2.4-2.6.8.4 1.7.6 2.6.6-.7-.7-1.8-1.2-1.4-2.2 1.3.4 1.1 1.1 2.2 1.5.1-1-.8-1.8-.7-2.9.5-.2 1.3.5 1.5-.4-.8-4.1-2.7-7.9-1.2-12.7-1.9-10.7-6.4-20.7-13.1-29.2-1.1-5.4-8.5-14.4-14.5-17.8-7.9-4.5-13.1-5.2-20.9-6.8-13-2.6-28.7 3.1-34.6 13.8zM922.3 248.1c-.4.8.4 1.2.1 1.9 3.9 2.2 3.2 8 8.1 9.3.5.6 2 1.7 1.4 2-.8-.3-.6-1.5-1.5-1.3-.9.1.4.7-.3.6-1.2-.2-1.3-1.7-2.2-1.4.5.8 1.2 1.4 2 1.8-.3.6-.6.3-.4.9 1 1.2 3.5 1.9 2.7 3.7 2.8 1.9 5.7 5.1 9.1 5.6-2.4-1.1-4.4-2.8-5.7-5 2.6.7 5.2 3 8.3 4.1.7-.8 3 .1 3.7 1.1-1.1.2-2-.6-2.9-1.2.7 2.1 3.1 2.2 4.9 1.9-.5.8-.6.6-.4 1.4 2.2 1.1 3.5-.5 5.5.1-.1 1.3.1 2.6.7 3.8 2.8-.4 1.9 2.5 4.7 2.9.7-.7-.1-.9.2-1.5.7.6.7-.9 1.3-.4.4.5.2 1.2 1.1 1.6.4-1 .5-.2.7.1 1.2-1.6 2.9-1.8 4-3.8.6.2-.2.9.2 1.2.2-.5 1.5-1.6 1.8-.4.9-.9 1.8-1.8 2.9-2.5.8.2-.2 1 .7 1.2 2-3.5 3.2-7.4 3.6-11.5 5.4-13.8 12.3-27.8 9.8-39.3-.7-.4-.6-1.1-1.7-1.4-.2-.5.2-1.2-.5-1.6-2.2-1.6-5.2-1.8-7.6-.6-1.6-1.7-3-5-5-5.4-.6-4-6.8-5.5-9.5-8.5-7.1-3.1-15.3-2.9-22.2.6-2.3.9-4.6 2.1-6.6 3.5.3-.1.6 0 .5.3-1.1.6-3.1 1.4-3.4 2.5 1-.5 2.5-2 3.2-1.6-2.4 1.9-4.6 4-6.6 6.3-2.5 3.4-6 8.2-6.7 12.3 0 .7.1 1.5.2 2.2 0 2.4-.9 5.1-.8 7 .2 2.6 1.2 5.2 2.6 7.5zm39.8-39.2l1.5.7c-.1.1-.1.3-.2.4l-1.5-.7c0-.2.1-.3.2-.4zm3.6 23c-4.9 8.7-6.1 16.2-8.2 24.5-1 .6-2.2.5-3.3.7-5.9-4.4-13-8.2-15.3-14.5-1.4-3.9-1.9-11.2 2.2-15 3.7-3.4 12.2-8 17.9-3.5 2.6 2.2 4.9 4.8 6.7 7.8zm-12.1-24c.5.3.2.3 0 .5-1.8-.2-3.6.1-5.2.8-1.2-.9-1.6.5-2.7 0-3.3 1.8-6.7 3.1-10.3 4.1 5.7-3.1 11.4-5.8 18.2-5.4zM950.5 451.4c-1.1-4.6-7.4-7.5-12.2-9.9-1 1.2-1.6.1-2 1.5-.8.2-1.7-1-2.5-.5-1.7 1.9-.7 4.7-3.2 5.8 1.4 2.6 3.4 5.1 2.4 7.7.8 1 1.5-.3 2.3.7.3.7.1 1.8-.7 1.8 1.8 1.6 3.8 4.4 6.1 2.4 2.4 1.1 3.6 3.6 5.3 3.7-1-.9-1.7-1.8-.3-2.8.1.2.4 1.6 1 1-.2-.4-.1-1 .2-1.3 1.3.8 2.5.1 3.8-.3.7-2.9 2.1-5.7.9-8.5.3-.3.6-.5 1-.5-.8-.8-1.4.3-2.1-.8zM566.3 376.2c3.9 1.4 8.2 5.1 12.5 6.1 2.8.6 5.2-.6 7.7 1 2.8-.6 5.5-1.7 8-3.1 5.9-4.4 8-12.1 7.8-18.1-1.4-4.2-5.8-11.8-11.2-14.2 1.2 1.2 1.8 1.7 1 2.3-3.5-1.6-8.4-7-11-6.1.5 0 2 .7 1.8 1.5-3.5-.9-6.2-2.8-9.5-2.9-2.4-.1-4.7 1.2-7.5 2.1-6.1 1.8-9.6 2.7-14.8 6.8-11.5 8.9-10.2 23.9-8.8 34.8 2 2.9 1.9 5.6 2.9 8.3 2.8 4.6 9.3 7.9 11.2 13.3 3.5.1 7.6 3.8 11.3 4.4 4.5.7 6.2-3.3 7.3-7.5-7-11.1-12.7-22-8.2-31.9 2.8-2 4.7-7.6 9-9.1 1.4-.2 2.8-.1 4.1.2 1.4.2 3.2 4.5 2.7 5.7-3.7.7-7.3 2-10.6 3.7 3.8.4 8.5-2.2 11.6-1.9-2.8 1.4-5.8 2.3-8.9 2.6-2.8.2-6.2-.3-8.4 2zM495.2 310.3c1-2.8-1.1-4.2-3.4-5.5.4-.7.6-1.6.4-2.4v-.5c-2.9-.1-3.7-2.8-6.4-4.8-1.7.2-3.4.2-5.1.1-.7.3-1 1.5-1.7 1.8-7.8 1.9-14 7.3-20.9 11.2-2.2-5.1-1.5-11.4-2.7-17.4-.9-4.6-3.1-9.1-.8-14.3.8 1 .7 2.3 1.1 3.5.7.4.1-2.6-.1-3.4-2.2-.8-2.3-3.4-4.1-3.6-1-.2-1.6.5-2.4.8-1-.7-.5-2.1-1.3-2.9-4.4-.4-8.7 1.5-11.3 5-.3.4-.6.9-.9 1.4l-.4 1c-2.6 2.6-5.4 5.7-5.1 9.7.1.6.1 1.2 0 1.8l-1 2.3v.4c-.4 8.3-.2 16.7.7 25-11.5 1.5-21.9 5.6-33.7 6.4l3.3 1.2c-.8 2.9 4.9 6.1 4.9 8.7 6.7 2.2 6.9 8.8 10.5 12.1 2.3 2.2 5.9 1 8.4 1.1 2.4.4 4.9.5 7.4.4 2.2-.4 4.5-.7 6.9-1.2 9-1.6 16.8-6 24.2-10 2.4-2.7 5.3-5 8.5-6.8.1 0 .2-.1.3-.1l-.5.7c8.9-6.8 18.9-12.1 25.2-21.7zM553.9 288.1zM537.8 445.4c-1.1-.9-1.7-2.3-1.8-3.7 0 .3.8 0 .8-.4s-.5-1-.3-1.6c.5-1 .7-2.1.5-3.1-1-3.5-4.9-5.9-9.9-6.5 1.9.6 5.9 1.6 5.9 3.9-11.2-8.9-21.1-3.7-30.5-1.9 1.4-2.3-.3-3.6-2-5 .6-.7-.3-.5-.3-1.1-2.1-1.1-3.3-2.2-5.2-1-7.7 4.7-11.4 12.8-13.9 21l.2-.1c-1.8 4.5-5.6 8.4-7.8 13.4-3 7.1-2.2 14.7-1.8 20.4 1.5.2 1.6 1.7 2.4 2.4.3.2.9-.2 1.3.1 1.3 1 .9 2.9 2.6 3 .9 0 .3-1.1.8-1.6 3.8-2.3 6.9-5.8 8.7-9.8 5.7-12.9 17.4-18.1 27.6-22.4 6.4-.4 13.6 5.4 19.6 3.9 0-.4-.8-.5-.7-.9.6-.5 1.6.1 2.1-.9-.8-.4-.7-1-.9-1.6 1.3-.1 1.2-1.2 2.2-2-1.1-.6-2.3-.5-2.2-1.7.3-.7 1.2.4 1.6-.3-1-.9-1-2-1.2-3.1.7.1 1.6.9 2.2.6zM546.1 343.3c0-.4-.8-.5-.7-.9.6-.5 1.6.1 2.1-.9-.8-.4-.7-1-.9-1.6 1.3-.1 1.2-1.2 2.2-2-1.1-.6-2.3-.5-2.2-1.7.3-.7 1.2.4 1.6-.3-1-.9-1-2-1.2-3.1.6-.1 1.5.8 2 .5-1.1-.9-1.7-2.3-1.8-3.7 0 .3.8 0 .8-.4s-.5-1-.3-1.6c.5-1 .7-2.1.5-3.1-1-3.5-4.9-5.9-9.9-6.5 1.9.7 6 1.6 5.9 3.9-11.2-8.9-21.1-3.7-30.5-1.9 1.4-2.3-.3-3.6-2-5 .6-.7-.3-.5-.3-1.1-2.1-1.1-3.3-2.2-5.2-1-7.7 4.7-11.4 12.8-13.9 21l.2-.1c-1.8 4.5-5.6 8.4-7.8 13.4-3 7.1-2.2 14.7-1.8 20.5 1.5.2 1.6 1.7 2.4 2.4.3.2.9-.2 1.3.1 1.3 1 .9 2.9 2.6 3 .9 0 .3-1.1.8-1.6 3.8-2.3 6.9-5.8 8.7-9.9 5.7-12.9 17.4-18 27.5-22.4 6.7-.4 13.9 5.4 19.9 4zM553.8 288.1c-2.7-.5-5.5-.8-8.3-1 2.7.8 5.5 1.2 8.3 1zM677 280.9c-.4-7.2-6.9-13-12.6-16.4-12-7.1-28.4-11.3-41.5-3.2-10 6.4-16.5 16.9-17.8 28.7-.6 5.4.9 7.5 1.7 11.7.9 5.1.5 11.2 4.2 13.4-.4-1.9-2.3-4.1-.8-6.1 1.4 1.1 2 2.9 4.4 3.1 6.3 7.9 14.4 14.2 23.7 18.1-.1.6-1.5-.2-1.1 1 6.6.5 13.1-.2 19.4-2.1l1.4-1.5c-.1-.6.5-1.3.7-1.7 1.3-3.1 1-6.6-.9-9.3l.1-.9c-6.1-1.2-12-2.9-17.8-5.2-.5-.5-.7-1.4-1.2-1.9-2.6-1-4.8-2.8-6.1-5.3-5-8.4 1.1-25.3 10.8-24.2 6.5.8 12.2 6.7 16.3 11 .8.8 1.2 2 2 2.7 2.1 1.8 3.9.9 6.6 1.6 1.4.4 2.9 2.2 4.4 2s2.3-1.6 3-3.1c4.7.5.5-5.1 2.6-6.3-2.8-1.2-1.4-4-1.5-6.1zM689.2 181.7c-1.1-4.6-7.4-7.5-12.2-9.9-1 1.2-1.6.1-2 1.5-.8.2-1.7-1-2.5-.5-1.7 1.9-.7 4.7-3.2 5.8 1.4 2.6 3.4 5.1 2.4 7.7.8 1 1.5-.3 2.3.7.3.7 0 1.8-.7 1.8 1.8 1.6 3.8 4.4 6.1 2.4 2.4 1.1 3.6 3.6 5.3 3.7-1-.9-1.7-1.8-.3-2.8.1.2.4 1.6 1 1-.2-.4-.1-1 .2-1.3 1.3.8 2.5.1 3.8-.3.7-2.9 2.1-5.7.9-8.5.3-.3.6-.5 1-.5-.8-.7-1.5.4-2.1-.8z"/><path fill="#A8005D" d="M644.2 280.2c8.5 2.6 11.9 9.9 18.8 14-5.9-4.8-10-12.7-18.8-14zM548.2 285.5zM660.2 218.1c-.3.9-1 6.2.5 4.2-1 1.4.1 2.4.6 3.7.5-.4 1-.6 1.6-.6 1.9 1.2 5.2 1.8 5.1 3.3 1.2.6 1.1-.4 2.2 0 .2 1 2.4 1.2 1.5 2.7 1.4-.7 3-.6 4.3.3.9-1.7 1.9.3 3.9.4.1-.3.1-.7.5-.6 7-.6 6-6.4 6.4-11.5.1-1.4 1.2-2.7 1.3-4 .1-2-2-4.4-.3-6.5.5.1.8 1.3 1 .2-.5-2.7-4-4.3-2.9-7.6-2.9-1-4-2-6.8-2.1.2 1.5-1.7.8-2.5 1.2.1-.3.3-.5.5-.6-2.4-.7-3.7-.1-4.6 1-.9-1.2-2.3.9-4 0-2.2 3.8-6.8 11.2-8.3 16.5zM548.2 285.5c-.5 0-2.5-.3-1.9.1.8 0 2 .5 1.9-.1zM880.3 340.9c.9 5.1.5 11.2 4.2 13.4-.4-1.9-2.3-4.1-.8-6.1 1.4 1.1 2 2.9 4.4 3.1 6.3 7.9 14.4 14.2 23.7 18.1-.1.6-1.5-.2-1.1 1 6.6.5 13.1-.2 19.4-2.1l1.4-1.5c-.1-.6.5-1.4.7-1.7 1.3-3.1 1-6.6-.9-9.3l.1-.9c-6.1-1.2-12-2.9-17.8-5.2-.5-.5-.7-1.4-1.2-1.9-2.6-.9-4.8-2.8-6.1-5.3-5-8.4 1.1-25.3 10.8-24.2 6.5.7 12.2 6.7 16.3 11 .8.8 1.2 2 2 2.7 2.1 1.8 3.9.9 6.6 1.6 1.4.4 2.9 2.2 4.4 2s2.3-1.6 3-3.1c4.7.5.5-5 2.6-6.2-2.7-1.3-1.2-4-1.4-6.1-.4-7.2-6.9-13-12.6-16.4-12-7.1-28.4-11.3-41.5-3.2-10 6.4-16.5 16.9-17.8 28.7-.6 5.3.8 7.3 1.6 11.6zM950.2 479.2c-.5-2.7-4-4.3-2.9-7.6-2.9-1-4-2-6.8-2.1.2 1.5-1.7.8-2.5 1.2.1-.3.3-.5.5-.6-2.4-.7-3.7-.1-4.6 1-.9-1.2-2.3.9-4 0-2.3 4-6.9 11.4-8.4 16.7-.2.9-1 6.2.5 4.2-1 1.4.1 2.4.6 3.7.5-.4 1-.6 1.6-.6 1.9 1.2 5.2 1.8 5.1 3.3 1.2.6 1.1-.4 2.2 0 .2 1 2.4 1.2 1.5 2.7 1.4-.7 3-.6 4.3.3.9-1.7 1.9.3 3.9.4.1-.3.1-.7.5-.6 7-.6 6-6.4 6.4-11.5.1-1.4 1.2-2.7 1.3-4 .1-2-2-4.4-.3-6.5.6-.1.9 1 1.1 0zM765 51.7c-.3.9-.1 2.2-.8 2.2.8.2.6-.3 1.5.1.5.5 1.1 1 1.7 1.3-.1.4-1.5-.3-1.5.2 1.7.1.4 1 1.1 1.4 2.6.9 5.1 2.1 7.5 3.6-.5 0-1.9-.7-1.8-.1 1.1.3 2.2.8 3.2 1.3.1.4-.8 0-.8.3 5.7 2.3 9.1 1 13 1.1-.8 1-3.3.5-4.6 1 .9 1.5 4.9 0 6.4 1-.7.1-1.7-.2-1.7.4 1.7.2 2.4-.4 3.8-.4.3.3 1.2 1.5 1.6.8-.3-.1-.5-.5-.1-.5 5.4-.4 8-3.2 11.2-5.4-.2 1.2-1.7 1.2-1.6 2.5 1.9.1 1.2-2.1 3.6-1.7-1.5 1.8-4.7 3.3-5.3 5.1 4.4-3.2 8.1-6.9 12.4-10.1-.8-.8.3-1.3-.3-1.7-1.3.1-.8 1.8-2.7 1.4 1-1.7.1-5.4 3-6.3.1.4 0 .9.5 1 .2-.3.1-.8.8-.8.1.4 0 .9.5 1 .9-3.2 3.2-5.1 3.8-8.5.5.7 0 .7.5 1 1.8-1.8-2.1-7.2-.1-8.8-2-3.5-2.8-7.5-2.1-11.5.8 0 .5 1 1.1 1.1-.7-2.3-2.2-5.1-.2-5.9.3.5-.1 1.5.6 1.8-.3-4.5 6.8-3.1 10.3-3.7-.3-.5-1.8-.2-1.7-1 1.7 1 2.3-.4 3.1-.8-.5-.9-1.2-1.5-1.6-2.4l-1.5-.3c-4.4-3.6-9.9-5.7-15.6-6-.6-.5-1.3-.9-2-1.1-12.8-1.3-19 9.6-19.5 20.6-.2 4.3-.7 7.5-2.7 9.9-3.2 3.9-7 7.4-11.2 10.3-4.1 2.9-10.1 3.7-13.7 6.3 1 .5 1.5-.4 1.9.3zm50.9-27.8c1.4 2 1 5.2 1.4 7.8-1.3-2.3-1.8-5.1-1.4-7.8zM644.1 62.1v.4c-.4 8.3-.2 16.7.7 25-11.5 1.5-21.9 5.6-33.7 6.4l3.3 1.2c-.8 2.9 4.9 6.1 4.9 8.7 6.7 2.2 6.9 8.8 10.5 12.1 2.3 2.2 5.8 1 8.4 1.1 2.4.4 4.9.5 7.3.4 2.2-.3 4.5-.7 6.9-1.2 9-1.6 16.8-6 24.2-10 2.4-2.7 5.3-5 8.5-6.8.1 0 .2-.1.3-.2-.1.2-.1.4-.2.6 8.9-6.8 18.8-12.2 25.1-21.7 1-2.8-1.1-4.2-3.4-5.5.4-.7.6-1.6.4-2.4v-.6c-2.9-.1-3.7-2.8-6.4-4.8-1.7.2-3.4.2-5.2.1-.7.3-1 1.5-1.7 1.8-7.8 1.9-14 7.3-20.9 11.2-2.2-5.1-1.5-11.4-2.7-17.3-.9-4.6-3.1-9.1-.8-14.3.8 1 .7 2.3 1.1 3.5.7.4.1-2.6-.1-3.4-2.2-.8-2.3-3.4-4.1-3.6-1-.2-1.6.5-2.3.8-1-.7-.4-2.1-1.3-2.9-4.4-.4-8.7 1.5-11.3 5-.3.4-.6.9-.9 1.3l-.4 1c-2.6 2.6-5.4 5.7-5.1 9.7.1.6.1 1.2 0 1.8l-1.1 2.6zM707.7 101.6c-1.8 4.4-5.7 8.4-7.8 13.4-3 7.1-2.2 14.7-1.8 20.4 1.5.2 1.6 1.7 2.4 2.4.3.2.9-.2 1.3.1 1.3 1 .8 2.9 2.7 3 .8 0 .3-1.1.8-1.6 3.8-2.3 6.9-5.8 8.7-9.9 5.7-12.8 17.4-18.1 27.5-22.4 6.4-.4 13.6 5.4 19.6 3.9 0-.4-.8-.5-.7-.9.6-.5 1.6.1 2.1-.9-.8-.4-.7-1-.9-1.6 1.3-.1 1.2-1.2 2.2-2-1.1-.6-2.3-.5-2.2-1.7.3-.7 1.2.4 1.6-.3-1-.9-1-2-1.2-3.1.6-.1 1.5.8 2 .5-1.1-.9-1.7-2.3-1.8-3.7 0 .2.8 0 .8-.4s-.5-1-.3-1.6c.5-1 .7-2.1.5-3.1-1-3.5-4.9-5.9-9.9-6.5 1.9.7 6 1.7 5.9 3.9-11.2-8.9-21.1-3.7-30.5-1.9 1.4-2.3-.3-3.6-2-4.9.6-.7-.3-.5-.3-1.1-2.1-1.1-3.3-2.2-5.2-1-7.7 4.7-11.4 12.8-13.9 21h.4zM876.4 58c8.5 2.6 11.9 9.9 18.8 14-5.9-4.8-10-12.7-18.8-14z"/><path fill="#A8005D" d="M843.2 92.9c-.4-1.9-2.3-4.1-.8-6.1 1.4 1.1 2 2.9 4.4 3.1 6.3 7.9 14.4 14.2 23.7 18.2-.1.6-1.5-.2-1.1 1 6.6.5 13.1-.2 19.4-2.2l1.4-1.5c-.1-.6.5-1.3.7-1.7 1.3-3.1 1-6.6-.9-9.3l.1-.9c-6.1-1.2-12-2.9-17.8-5.2-.5-.6-.7-1.4-1.2-1.9-2.6-.9-4.8-2.8-6.2-5.3-5-8.4 1.1-25.3 10.8-24.2 6.5.8 12.2 6.7 16.2 11 .8.8 1.2 2.1 2 2.7 2.1 1.8 3.9.9 6.5 1.6 1.4.4 2.9 2.2 4.4 2s2.3-1.6 3-3c4.7.5.5-5.1 2.6-6.3-2.7-1.3-1.2-4-1.3-6.1-.4-7.2-6.9-13-12.6-16.4-12-7.1-28.4-11.3-41.5-3.2-9.9 6.4-16.5 16.9-17.8 28.7-.6 5.4.9 7.4 1.7 11.7 1 5 .5 11.1 4.3 13.3zM529.8 141.4c2 2.9 1.9 5.6 2.9 8.3 2.8 4.6 9.3 7.9 11.2 13.3 3.5.1 7.6 3.8 11.3 4.4 4.5.7 6.2-3.3 7.3-7.5-7-11.1-12.7-22-8.2-31.9 2.8-2 4.7-7.6 9-9.1 1.4-.2 2.8-.1 4.1.2 1.4.2 3.2 4.4 2.7 5.7-3.7.7-7.3 2-10.6 3.7 3.8.4 8.5-2.2 11.6-1.9-2.8 1.4-5.8 2.3-8.9 2.6-3 .4-6.4-.2-8.5 2.2 3.9 1.4 8.2 5.1 12.5 6.1 2.8.6 5.2-.6 7.7 1 2.8-.6 5.5-1.7 8-3.1 5.9-4.4 8-12.2 7.8-18.1-1.4-4.2-5.8-11.8-11.2-14.2 1.2 1.2 1.8 1.7 1 2.3-3.5-1.6-8.4-7-11-6.1.5 0 2 .7 1.8 1.5-3.5-.9-6.2-2.8-9.5-2.9-2.4-.1-4.7 1.2-7.5 2.1-6.1 1.8-9.6 2.7-14.8 6.8-11.4 8.7-10.1 23.6-8.7 34.6zM386.6 82.5c-.8 2.9 4.9 6.1 4.9 8.7 6.7 2.2 6.9 8.8 10.5 12.1 2.3 2.2 5.9 1 8.4 1.1 2.4.4 4.9.5 7.4.4 2.2-.3 4.5-.7 6.9-1.2 9-1.6 16.8-6 24.2-10 2.4-2.7 5.3-5 8.5-6.8.1-.1.2-.1.3-.2-.1.2-.1.4-.2.6 8.9-6.8 18.8-12.2 25.1-21.7 1-2.8-1.1-4.2-3.4-5.5.4-.7.6-1.6.4-2.4v-.5c-2.9-.1-3.7-2.8-6.4-4.8-1.7.2-3.4.2-5.1.1-.7.3-1 1.5-1.7 1.8-7.8 1.9-14 7.3-20.9 11.2-2.2-5.1-1.5-11.4-2.7-17.4-.9-4.6-3.1-9.1-.8-14.3.8 1 .7 2.3 1.1 3.5.7.4.1-2.6-.1-3.4-2.2-.8-2.3-3.4-4.1-3.6-1-.2-1.6.5-2.4.8-1-.7-.5-2.1-1.3-2.9-4.4-.4-8.7 1.5-11.3 5-.3.4-.6.9-.9 1.3l-.4 1c-2.6 2.6-5.4 5.7-5.1 9.7.1.6.1 1.2 0 1.8l-1 2.3v.4c-.4 8.3-.2 16.7.7 25-11.5 1.5-21.9 5.6-33.7 6.4.9.7 2 1.1 3.1 1.5zM479.9 88.9c-1.8 4.5-5.6 8.4-7.8 13.4-3 7.1-2.2 14.7-1.8 20.4 1.5.2 1.6 1.7 2.4 2.4.3.2.9-.2 1.3.1 1.3 1 .9 2.9 2.6 3 .9 0 .3-1.1.8-1.6 3.8-2.3 6.9-5.8 8.7-9.8 5.7-12.8 17.4-18 27.5-22.4 6.4-.4 13.6 5.4 19.6 3.9 0-.4-.8-.5-.7-.9.6-.5 1.6.1 2.1-.9-.8-.4-.7-1-.9-1.6 1.3-.1 1.2-1.2 2.2-2-1.1-.6-2.3-.5-2.2-1.7.3-.7 1.2.4 1.6-.3-1-.9-1-2-1.2-3.2.6-.1 1.5.8 2 .5-1.1-.9-1.7-2.3-1.8-3.7 0 .3.8 0 .8-.4s-.5-1-.3-1.6c.5-1 .7-2.1.5-3.1-1-3.5-4.9-5.9-9.9-6.5 1.9.7 6 1.6 5.9 3.9-11.2-8.9-21.1-3.6-30.5-1.9 1.4-2.3-.3-3.6-2-5 .6-.7-.3-.5-.3-1.1-2.1-1.1-3.3-2.2-5.2-1-7.7 4.7-11.4 12.8-13.9 21l.5.1zM610.6 23.4c8.5 2.6 11.9 9.9 18.8 14-5.9-4.9-10-12.8-18.8-14z"/><path fill="#A8005D" d="M577.4 58.2c-.4-1.9-2.3-4.1-.8-6.1 1.4 1.1 2 2.9 4.4 3.1 6.3 7.9 14.4 14.2 23.7 18.1-.1.6-1.5-.2-1.1 1 6.6.5 13.2-.2 19.5-2.1l1.4-1.5c-.1-.6.5-1.3.7-1.7 1.3-3.1 1-6.6-.9-9.3l.1-.9c-6.1-1.2-12-3-17.8-5.2-.5-.5-.7-1.4-1.2-1.9-2.6-.9-4.8-2.8-6.2-5.3-5-8.4 1.1-25.3 10.8-24.2 6.5.7 12.2 6.7 16.3 11 .8.8 1.2 2 2 2.7 2.1 1.8 3.9.9 6.6 1.6 1.4.4 2.9 2.2 4.4 2s2.3-1.6 3-3.1c4.7.5.5-5 2.6-6.2-2.7-1.3-1.2-4-1.3-6.1-.4-7.2-6.9-13-12.6-16.4-12-7.1-28.4-11.3-41.5-3.2-10 6.4-16.5 16.9-17.8 28.7-.6 5.4.9 7.5 1.7 11.7.7 5 .3 11.1 4 13.3zM909.9 96.8v.4c-.4 8.3-.2 16.7.7 25-11.5 1.5-21.9 5.6-33.7 6.4l3.3 1.2c-.8 2.9 4.9 6.1 4.9 8.7 6.7 2.2 6.9 8.8 10.5 12.1 2.3 2.2 5.8 1 8.4 1.1 2.4.4 4.9.5 7.3.4 2.2-.4 4.5-.7 6.9-1.2 9-1.6 16.8-6 24.2-10 2.4-2.7 5.3-5 8.5-6.8.1-.1.2-.1.3-.1l-.2.6c8.8-6.8 18.8-12.2 25.1-21.7 1-2.8-1.2-4.2-3.4-5.5.4-.7.6-1.6.4-2.4v-.5c-2.9-.2-3.7-2.8-6.4-4.8-1.7.2-3.4.3-5.2.1-.7.3-1 1.5-1.7 1.8-7.8 1.9-14 7.3-20.9 11.2-2.2-5.1-1.5-11.4-2.7-17.3-.9-4.6-3.1-9.1-.8-14.3.8 1 .7 2.3 1.1 3.5.7.4.1-2.6-.1-3.4-2.2-.8-2.3-3.4-4.1-3.6-1-.2-1.6.5-2.3.8-1-.7-.5-2.1-1.3-2.9-4.4-.4-8.7 1.5-11.3 5-.3.4-.6.9-.9 1.3l-.4 1c-2.5 2.6-5.4 5.7-5.1 9.7.1.6.1 1.2 0 1.8l-1.1 2.4zM803.4 168.8c-2.6 4.7-3.6 11.7-1 16.3.5.8 2.1 1 1.4 2.2 2.4-.6 4.5 2.7 7.7 3.1 3.6.5 6.4-2.1 7.6-6.1 3.6-1.4 4-4.7 6.8-6.1 4.5-2.3 14.1-1.8 21.1 2.9 4.8 3.5 9.1 7.7 12.6 12.5 2.1 3.2.8 7.1 1.1 10.4.4 2.6 1.1 5.2 2.1 7.6 2.5 7.4 5.3 16.5 14.8 19.8-2.1-.9-3.2-2-2.3-3.7 3.3 2.2 4.4 2.1 3.4-.1 1.3.4 3.2 2 4.2 1.7-.3-.7-1.7-.4-1.7-1.6.9-.2.8-1.1.4-1.6 1.2-.1 3.1 1.5 4.3 1.4.9-1.3-3.2-1.4-2.4-2.7.8.4 1.7.6 2.6.6-.7-.6-1.8-1.2-1.4-2.2 1.3.4 1.1 1.1 2.2 1.5.1-1-.8-1.8-.7-2.9.5-.2 1.3.5 1.4-.4-.8-4.1-2.7-7.9-1.2-12.6-1.9-10.7-6.4-20.7-13.1-29.2-1.1-5.4-8.5-14.4-14.5-17.8-7.9-4.5-13.1-5.2-20.9-6.8-12.9-2.6-28.7 3.1-34.5 13.8zM1026.8 426.5c1.4-3.1 3.3-6.1 5.6-8.6v-39.1c-6.5 4.8-9.8 12.3-12.2 19.8l.2-.1c-1.8 4.5-5.7 8.4-7.8 13.4-3 7.1-2.2 14.7-1.8 20.5 1.5.2 1.6 1.7 2.4 2.4.3.2.9-.2 1.3.1 1.3 1 .9 2.9 2.7 3 .8 0 .3-1.1.8-1.6 3.9-2.3 6.9-5.7 8.8-9.8zM1002.5 467.7c.1-.1.2-.3.2-.4l-1.5-.7c-.1.1-.1.3-.2.4l1.5.7zM1028.8 248.3c-2.7-.6-4.1.6-6.6 1-5.1.9-10.7.4-15.1 2.2-13.7 5.5-24.2 24.5-22.8 40.8.8.6 1.4 1.4 1.7 2.3.7.2 3.9.3 2.6 1.3 8.7-.7 12.1-12.1 19.1-19.6 3.8-4 13.6-11.8 19-9.2 1.6.8 4.1 4.3 5.6 6.8v-25.8c-1.1-.2-2.3-.1-3.5.2zM959.5 412.4c9-1.6 16.8-6 24.2-10 2.4-2.7 5.3-5 8.5-6.8l.3-.1c-.1.2-.1.4-.2.6 8.8-6.8 18.8-12.1 25.1-21.7 1-2.8-1.1-4.2-3.4-5.5.4-.7.6-1.6.4-2.4v-.5c-2.9-.1-3.7-2.8-6.4-4.8-1.7.2-3.4.2-5.2.1-.7.3-1 1.5-1.7 1.8-7.8 1.9-14 7.3-20.9 11.2-2.2-5.1-1.5-11.4-2.7-17.4-.9-4.6-3.1-9.1-.8-14.2.8 1 .7 2.3 1.1 3.5.7.4.1-2.6-.1-3.4-2.2-.8-2.3-3.4-4.1-3.6-1-.2-1.6.5-2.3.8-1-.7-.5-2.1-1.3-2.9-4.4-.4-8.7 1.5-11.3 5-.3.4-.6.9-.9 1.3l-.4 1c-2.5 2.6-5.4 5.7-5.1 9.7.1.6.1 1.2 0 1.8l-1 2.3v.4c-.4 8.3-.2 16.7.7 25-11.5 1.5-21.9 5.6-33.7 6.4l3.3 1.2c-.8 2.9 4.9 6.1 4.9 8.7 6.7 2.2 6.9 8.8 10.5 12.1 2.3 2.2 5.9 1 8.4 1.1 2.4.4 4.9.5 7.3.4 2.1-.3 4.4-.7 6.8-1.1zM1032.3 313.1v-22.4c-4 8-11.8 15.9-15.8 22.6-.2 1.3.9.8 1.3 1.7-1.2 1.6.8 2.1-1.3 4 2.5-.9 4.1-.4 6-2.7 1 .3.3 1.4 1.3 1 1.4-1.2 2.7-3 4.7-2.3.9-2 3.3-3.3 2.9-1.4.3-.2.6-.3.9-.5zM1028.9 189.6c2 2.9 1.9 5.6 2.9 8.3.2.3.3.5.5.8v-38.1c-5.6 8.8-4.5 20.2-3.4 29zM1032.3 513.7c-9.3 8.3-15.5 22.7-14.5 35.5.8.6 1.4 1.4 1.7 2.3.7.2 3.9.3 2.6 1.3 4.3-.3 7.4-3.3 10.1-7.2v-31.9zM930.4 564.2c8.5 2.6 11.9 9.9 18.8 14-5.9-4.9-10-12.7-18.8-14zM917.7 319.4c8.5 2.6 11.9 9.9 18.8 14-5.9-4.9-9.9-12.7-18.8-14zM967.4 210.1l1.5.7.2-.4-1.5-.7c0 .1-.1.2-.2.4zM983.2 61.1c.3.2.9-.2 1.3.1 1.3 1 .8 2.9 2.7 3.1.8 0 .3-1.1.8-1.6 3.8-2.3 6.9-5.8 8.7-9.9 5.7-12.8 17.4-18.1 27.6-22.4 2.6-.2 5.3.7 8.1 1.7V8.3c-7.4-1.4-14.2 1.5-20.8 2.7 1.4-2.3-.3-3.6-2-4.9.6-.7-.3-.5-.3-1.1-2.1-1.1-3.3-2.2-5.2-1-7.7 4.7-11.4 12.8-13.9 21l.2-.1c-1.8 4.5-5.7 8.4-7.8 13.4-3 7.1-2.2 14.7-1.8 20.5 1.4.2 1.5 1.7 2.4 2.3z"/></svg>