<svg version="1.1" xmlns="http://www.w3.org/2000/svg" x="0" y="0" preserveAspectRatio="none" viewBox="0 0 1280 22" xml:space="preserve"><path d="M77.3 15.5c2.2.6 4.6.8 6.9.6-2.3-.6-3.3-.8-2.8-2 5.3-.5 14.9 2.6 17.4-.3-.6.3-2.9.6-3.2-.5 4.4-1.2 8.5-1 12.2-2.5 2.9-1.2 8.8-2 10.4-1.5s10.6 1 13.7 2.6c3.7 2 7.4 2.3 11.1 3.2-1.3.9-2.6-.6-3.9.6 1.6 2 3.2-.6 4.8 2-3.1 0-7.3-1.7-9.7-.7 7 1.5 13.9 1.9 20.9 3.3.1-1.4 1.6-.8 1.4-1.8-1.3-1.2-2.5.7-3.7-1.5 2.5-.5 5.3-4.6 8.8-2.5-.3.4-.8.8-.6 1.4.5 0 .9-.6 1.4 0-.3.4-.8.8-.6 1.4 3.9-1.9 7.8-1.4 11.7-3.7-.2 1.1-.7.6-.6 1.4.5 0 1-.1 1.4-.5 2.3-1.3 40.8-8.6 69.7-4.6s70.5.8 74.2 2 10.3-1 17.1-2.5 24.9 8.3 26.6 7-9.1-6.5-1.3-6.9 47.7.4 56.7 3.3c1.2.5 2.5.8 3.6 1.3 2.1 1.3 4.3 2.4 6.5 3.2 2.2.5 4.4 1.1 6.8 1.6 8.9 2.1 17.7 1.1 26 .4 3.3-1.5 6.8-2.5 10.4-2.9h.3c-.1.2-.3.3-.4.5 9.7-2.5 19.8-3.5 28.7-8.3h.1c9.6-4.6 32.1-4 41.5-3.1 5.5.6 11 1.6 16.3 3 0 1.4.7 2.7 1.8 3.5 10.3 7.6 22.9 8.1 35 7l-.2-.2c6.8 0 14 2.9 21.8 3 10.9.1 20.5-5 27.8-8.6 5.1-2.8 11.8-2.7 16.3-1.5h.3c.3.1.5.1.8.1.1.8-1.1.2-1.2.8.7 0 2.6 1 1.3 1.8 1.5.5 2.9 1.2 4.2 2 .1 1-1.2.3-1 1.4 4.9.6 9.9.2 14.7-1.3 14-.3 28.6.4 40-3.1h.2c14.9-3.6 62-6.7 89.3-5.7 26.9 1 44.9 2.5 48.8 3l1.3.2c3 .4 5.3 1 5.2 1.3-.1.3-1.2.3-2.6.3-.9-.1-1.9-.1-2.8.1-2.2.1-1.8.8 0 .9 8.3 1.1 16.6 2.7 24.8 4.7 1.7.5 3.5 1 5.3 1.5 9.7 2.9 19.5 2.2 28.7 1.8 3.7-1.5 7.6-2.4 11.6-2.6h.3l-.5.5c7.2-1.5 14.5-2.2 21.6-4h.1l.4-.1.8-.2c7.2-1.8 19.6-3.7 31.5-4.5 12.6-.8 32 .5 47.9-2.2s56-.1 68.2 1.1c12.1 1.1 27.3 5.7 34 9h.4c1.4.7 2.9.9 4.4.6-1.8-1.3-5.2-1.6-5.6-4.6 2.1-.2 4 .8 6.2-.9 11.6 1.8 23.5.6 34.5-3.4.4.6-1.5 1.1-.1 1.7 1.3-1 2.6-2.2 3.8-3.3 3-2.6 16.4-1.5 26.8-.1 2.3.4 4.7.8 7 1.1h.1c2.9.3 5.8.5 8.7.5 6.6 3.4 22.4 3.3 31.2-.1 4.6-1.8 6 1.3 9.3 1.3 3.3 0 11.7-5.8 20.6-5.6V0H0v5.9s35.2 4.4 45.4 5.4 26.2 2.9 31.9 4.2zm739.6-9.8c9 .1 13.6 1.2 17.4 1.1 3.8-.1 8.4.4 12.1.5 3.6.1 5.2 1.6 5.2 1.6-3.8-.6-7.6-.9-11.3-.9-4.7.2-19.8-.9-24-1.1-4.2-.2-12.2-.6-12.2-.6s3.8-.7 12.8-.6zm-305.8-3c.7-.4 2.1.3 2.9 0 2.8-.7 5.6-1.2 8.4-1.4 2-.1 3.9-.1 5.9 0 2.1.2 4.1.1 6.2-.1 2.8-.1 5.6.3 8.3 1.1 1.8.5 2.5 1.4 3.8 1.5 1 .2 1.9.7 2.7 1.4-5.8-1.2-11.8-2-17.7-2.4-9.9-.6-22.4 1.2-22.4 1.2s1.3-1 1.9-1.3z" fill="#fff"/></svg>
