<svg xmlns="http://www.w3.org/2000/svg" width="1280" height="22" viewBox="0 0 1280 22">
  <path id="Path_8812" data-name="Path 8812" d="M688.089-1023.283l-.006.007a20.486,20.486,0,0,0-6.906-.623c2.323.59,3.3.81,2.779,2.036-5.283.511-14.87-2.6-17.4.257.557-.3,2.935-.55,3.217.529-4.388,1.185-8.477,1.015-12.15,2.486-.014.006-.03.008-.044.014-2.857,1.224-8.781,2.046-10.444,1.491s-10.586-1-13.684-2.571l0,.005c-3.716-2.043-7.4-2.311-11.092-3.226,1.293-.852,2.625.646,3.914-.613-1.609-2-3.148.638-4.783-2.04,3.09-.027,7.324,1.737,9.716.734-6.982-1.528-13.942-1.9-20.917-3.34-.076,1.442-1.563.818-1.432,1.808,1.258,1.2,2.468-.741,3.741,1.488-2.49.519-5.351,4.626-8.833,2.53.265-.446.823-.831.6-1.4-.483-.01-.947.627-1.445-.03.27-.45.823-.831.6-1.4-3.89,1.942-7.825,1.357-11.707,3.7.236-1.1.743-.629.606-1.388a2.219,2.219,0,0,0-1.436.459v-.018c-2.221,1.354-40.732,8.623-69.659,4.6s-70.5-.8-74.161-1.98-10.309,1.016-17.126,2.5-24.94-8.3-26.6-6.973,9.145,6.484,1.33,6.879-47.72-.395-56.659-3.32c-1.239-.476-2.541-.812-3.57-1.31a34.177,34.177,0,0,0-6.55-3.226c-2.166-.555-4.371-1.091-6.752-1.65-8.867-2.116-17.686-1.129-25.964-.366a33.567,33.567,0,0,1-10.384,2.868c-.1.009-.2.029-.3.033.135-.163.277-.324.414-.486-9.721,2.461-19.795,3.509-28.69,8.325-.034.015-.069.026-.1.041-9.613,4.63-32.149,3.962-41.461,3.13a107.9,107.9,0,0,1-16.335-3.043,4.061,4.061,0,0,0-1.814-3.481c-10.262-7.6-22.9-8.074-35-7.045.084.081.163.152.24.235-6.82,0-14-2.935-21.8-2.98-10.869-.077-20.531,4.96-27.792,8.583-5.123,2.765-11.776,2.735-16.322,1.542-.043-.012-.09-.022-.134-.034s-.1-.024-.149-.038l0,.009a6.549,6.549,0,0,0-.763-.146c-.062-.814,1.1-.2,1.221-.786-.736-.027-2.563-.98-1.328-1.846a24.315,24.315,0,0,1-4.234-2.05c-.141-1.007,1.21-.286.975-1.391a35.575,35.575,0,0,0-14.686,1.3c-14,.285-28.571-.36-39.977,3.049-.076.018-.15.029-.225.047-14.875,3.594-62.025,6.715-89.294,5.728-26.927-.975-44.915-2.546-48.808-3.027l-1.3-.177c-3.032-.443-5.333-1-5.259-1.3.05-.2,1.225-.27,2.64-.318a9.369,9.369,0,0,0,2.847-.1c2.244-.111,1.829-.749,0-.869a242.852,242.852,0,0,1-24.819-4.658h0c-1.7-.51-3.45-1.017-5.3-1.542-9.694-2.8-19.5-2.163-28.686-1.747a37.17,37.17,0,0,1-11.63,2.635c-.108.005-.223.021-.331.021.158-.174.324-.344.483-.517-7.193,1.468-14.524,2.246-21.582,4.006-.028.007-.06.007-.087.014-.135.038-.288.075-.427.113-.274.07-.547.143-.819.216-7.165,1.819-19.594,3.705-31.51,4.489-12.637.832-32.007-.5-47.886,2.245s-56.033.083-68.248-1.088c-12.049-1.154-27.254-5.685-34-9-.076-.037-.153-.074-.229-.109l-.061-.029,0,.006a6.884,6.884,0,0,0-4.4-.582c1.8,1.29,5.247,1.621,5.567,4.547-2.062.218-4.02-.8-6.18.867a70.582,70.582,0,0,0-34.532,3.411c-.365-.613,1.469-1.062.122-1.741-1.3,1.052-2.553,2.162-3.763,3.312l-.008-.007c-3.008,2.636-16.406,1.516-26.845.083q-3.5-.68-7.045-1.075l-.115-.02v.006q-4.317-.477-8.685-.534c-6.616-3.416-22.384-3.351-31.229.085-4.579,1.791-6.026-1.292-9.3-1.292s-11.723,5.819-20.559,5.7v5.868h1280v-5.868s-35.187-4.435-45.444-5.455S693.744-1021.907,688.089-1023.283Zm-739.569,9.855c-8.979-.111-13.635-1.219-17.4-1.108s-8.425-.433-12.083-.494-5.209-1.612-5.209-1.612a66.618,66.618,0,0,0,11.306.887c4.656-.222,19.842.886,23.943,1.108s12.193.554,12.193.554S-42.5-1013.317-51.48-1013.428Zm305.716,3.024c-.665.413-2.106-.3-2.882,0a44.019,44.019,0,0,1-8.425,1.41,49.828,49.828,0,0,1-5.875,0,36.421,36.421,0,0,0-6.207.083,28.524,28.524,0,0,1-8.314-1.08c-1.773-.555-2.549-1.441-3.768-1.552a5.929,5.929,0,0,1-2.661-1.441,129.555,129.555,0,0,0,17.736,2.438c9.865.665,22.391-1.219,22.391-1.219S254.9-1010.816,254.236-1010.4Z" transform="translate(514.651 1029.764)" fill="#b00060"/>
</svg>
